<svg xmlns="http://www.w3.org/2000/svg"
	xmlns:xlink="http://www.w3.org/1999/xlink" version="1.1" viewBox="0 0 800 800">
	<style>
		#aboutpath {
			stroke-width: 7.5;
	}
	</style>

	<defs>
		<symbol id="star-shape" viewBox="0 0 150 143">
			<path id="aboutpath" d="M71.647 2.781c.898-2.764 4.808-2.764 5.706 0l15.445 47.534a3 3 0 0 0 2.853 2.073h49.98c2.906 0 4.115 3.719 1.764 5.427L106.96 87.193a2.999 2.999 0 0 0-1.09 3.354l15.445 47.534c.898 2.764-2.266 5.062-4.617 3.354l-40.435-29.378a3 3 0 0 0-3.526 0l-40.435 29.378c-2.351 1.708-5.515-.59-4.617-3.354L43.13 90.547a3 3 0 0 0-1.09-3.354L1.605 57.815c-2.35-1.708-1.142-5.427 1.764-5.427h49.98a3 3 0 0 0 2.853-2.073L71.647 2.781Z"></path>
		</symbol>
	</defs>
	<g transform="scale(1.5)">
		<use href="#star-shape" stroke="none" width="37.094765958951214" opacity=".69" transform="matrix(0.8884440651207653,0.4589849051457895,-0.4589849051457895,0.8884440651207653,451.3554629352762,-315.4999000524904)"></use>
		<use href="#star-shape" stroke="none" width="56.398732145359496" opacity=".65" transform="matrix(0.7262518199295638,0.6874287556168978,-0.6874287556168978,0.7262518199295638,311.2190360682598,419.5506387700279)"></use>
		<use href="#star-shape" fill="none" width="30.0398936401944" opacity=".77" transform="matrix(0.9375090924369227,0.3479607759476598,-0.3479607759476598,0.9375090924369227,591.2846830955655,380.12419199919043)"></use>
		<use href="#star-shape" stroke="none" width="42.38454027600653" opacity=".67" transform="matrix(0.8125520696923364,-0.5828886120338092,0.5828886120338092,0.8125520696923364,-62.27208672027149,438.45299302478264)"></use>
		<use href="#star-shape" fill="none" width="29.29053372175094" opacity=".85" transform="matrix(0.9512322481204031,-0.3084756232440482,0.3084756232440482,0.9512322481204031,234.76420073862502,-125.21174300802576)"></use>
		<use href="#star-shape" stroke="none" width="42.91676514204697" opacity=".98" transform="matrix(0.9996974902633773,-0.024595283310111113,0.024595283310111113,0.9996974902633773,345.50775061801664,263.8639988890734)"></use>
		<use href="#star-shape" fill="none" width="40.105714524823775" opacity=".99" transform="matrix(0.8957250987332903,0.44460830795120937,-0.44460830795120937,0.8957250987332903,303.35103354452167,26.227259811728345)"></use>
		<use href="#star-shape" stroke="none" width="47.11906935877535" opacity=".73" transform="matrix(0.9711654719912896,-0.238406430307439,0.238406430307439,0.9711654719912896,405.9659561636801,-229.73807976317428)"></use>
		<use href="#star-shape" fill="none" width="30.317828524434276" opacity=".92" transform="matrix(0.9850362386063906,0.1723473487819699,-0.1723473487819699,0.9850362386063906,456.70998820789464,9.597119114539566)"></use>
		<use href="#star-shape" stroke="none" width="31.620398314977283" opacity=".69" transform="matrix(0.7839170483314097,0.6208655742875185,-0.6208655742875185,0.7839170483314097,649.2075739208099,-0.854920462324344)"></use>
		<use href="#star-shape" fill="none" width="39.096245408230146" opacity=".64" transform="matrix(0.9949523903970667,0.10034809835349599,-0.10034809835349599,0.9949523903970667,773.1569069548877,-4.708114418101502)"></use>
		<use href="#star-shape" stroke="none" width="48.24723341501855" opacity=".58" transform="matrix(0.9980705648715466,0.06208983440944302,-0.06208983440944302,0.9980705648715466,583.6593201572679,-16.827117261890294)"></use>
		<use href="#star-shape" fill="none" width="48.5930640596975" opacity=".65" transform="matrix(0.8477893844527824,-0.5303330647896398,0.5303330647896398,0.8477893844527824,-57.34441618553805,-230.47695523870004)"></use>
		<use href="#star-shape" stroke="none" width="40.71500515392968" opacity=".89" transform="matrix(0.9930590548889238,0.11761680791076344,-0.11761680791076344,0.9930590548889238,528.0319346200025,39.57486519649012)"></use>
		<use href="#star-shape" fill="none" width="38.45773105079422" opacity=".95" transform="matrix(0.9224188659137122,-0.3861909318024712,0.3861909318024712,0.9224188659137122,316.0243896419074,-96.04136831384312)"></use>
		<use href="#star-shape" fill="none" width="31.561416909392094" opacity=".96" transform="matrix(0.9749059440669137,-0.22261716066601828,0.22261716066601828,0.9749059440669137,378.7975554297344,213.60573849486263)"></use>
		<use href="#star-shape" stroke="none" width="48.55606417533874" opacity=".68" transform="matrix(0.9832865399252128,0.1820647697988356,-0.1820647697988356,0.9832865399252128,660.5727629875063,344.29191523143913)"></use>
		<use href="#star-shape" fill="none" width="45.68349485162991" opacity=".77" transform="matrix(0.8311568110851572,0.5560380880719884,-0.5560380880719884,0.8311568110851572,946.9009987296301,384.49513931897553)"></use>
		<use href="#star-shape" fill="none" width="32.85975390226245" opacity=".72" transform="matrix(0.7622669757867782,-0.6472627423426126,0.6472627423426126,0.7622669757867782,-40.84949509331091,49.03555113682563)"></use>
		<use href="#star-shape" stroke="none" width="54.357646397027565" opacity=".50" transform="matrix(0.9217212883931236,-0.3878528928897143,0.3878528928897143,0.9217212883931236,550.8888088556319,-290.54538198444743)"></use>
		<use href="#star-shape" fill="none" width="47.95151302743062" opacity=".73" transform="matrix(0.9534178503316063,0.3016527849516043,-0.3016527849516043,0.9534178503316063,143.44939506903486,18.661450844162744)"></use>
		<use href="#star-shape" stroke="none" width="31.83943533308474" opacity=".87" transform="matrix(0.7815561612881439,-0.6238348874121589,0.6238348874121589,0.7815561612881439,494.2146197187944,243.00221256588998)"></use>
		<use href="#star-shape" fill="none" width="47.975398360069946" opacity=".65" transform="matrix(0.9209669635193594,0.38964067049774337,-0.38964067049774337,0.9209669635193594,198.719295641077,-313.59146272793214)"></use>
		<use href="#star-shape" stroke="none" width="25.209790763981076" opacity=".87" transform="matrix(0.8144455142354413,-0.580240040277959,0.580240040277959,0.8144455142354413,16.22315274735007,194.94578422032833)"></use>
		<use href="#star-shape" fill="none" width="38.43160190877191" opacity=".88" transform="matrix(0.9597192462849209,-0.2809607949702297,0.2809607949702297,0.9597192462849209,-28.374950320218787,-83.86155002256652)"></use>
		<use href="#star-shape" fill="none" width="28.53623598388615" opacity=".79" transform="matrix(0.7883649489622516,0.6152078569457208,-0.6152078569457208,0.7883649489622516,724.5175408193144,33.023511117742714)"></use>
		<use href="#star-shape" stroke="none" width="40.82645145792819" opacity=".67" transform="matrix(0.9329135374438372,0.3601004466173657,-0.3601004466173657,0.9329135374438372,508.73088214978,189.08799208510686)"></use>
		<use href="#star-shape" stroke="none" width="56.977474151879186" opacity=".95" transform="matrix(0.9425457401769444,0.33407712833161146,-0.33407712833161146,0.9425457401769444,303.60244214033384,-163.1244696980509)"></use>
		<use href="#star-shape" fill="none" width="36.15565336392855" opacity=".92" transform="matrix(0.7370813954410548,0.6758039778624179,-0.6758039778624179,0.7370813954410548,584.917068938418,445.2927569561312)"></use>
		<use href="#star-shape" fill="none" width="34.620206892866584" opacity=".63" transform="matrix(0.9830755832366381,-0.1832004302504333,0.1832004302504333,0.9830755832366381,382.73642050238067,136.44266598253319)"></use>
		<use href="#star-shape" stroke="none" width="32.9878329805277" opacity=".66" transform="matrix(0.9994067001246395,0.03444194747657265,-0.03444194747657265,0.9994067001246395,345.71366215970266,91.89028252003402)"></use>
		<use href="#star-shape" fill="none" width="42.283612331007085" opacity=".68" transform="matrix(0.9871039664812234,0.16008047775114803,-0.16008047775114803,0.9871039664812234,290.2083759450139,264.4193862471599)"></use>
		<use href="#star-shape" stroke="none" width="40.44702919268619" opacity=".76" transform="matrix(0.8707624958006693,0.49170384979882886,-0.49170384979882886,0.8707624958006693,676.9268908857975,324.7327343307919)"></use>
		<use href="#star-shape" fill="none" width="41.652927951129826" opacity=".65" transform="matrix(0.9997524685436872,0.02224863233558053,-0.02224863233558053,0.9997524685436872,33.85697051845607,162.8546315975148)"></use>
		<use href="#star-shape" fill="none" width="41.589962479814474" opacity=".80" transform="matrix(0.7846052749767528,-0.619995614886633,0.619995614886633,0.7846052749767528,156.87714004802808,-241.22693853682978)"></use>
		<use href="#star-shape" stroke="none" width="49.96780168364927" opacity=".50" transform="matrix(0.7772403525662709,0.6292038098602543,-0.6292038098602543,0.7772403525662709,881.1136947850212,-164.80133297840615)"></use>
		<use href="#star-shape" fill="none" width="31.91340685937287" opacity=".60" transform="matrix(0.9205191425924971,-0.3906974636733311,0.3906974636733311,0.9205191425924971,417.2437972742955,251.9030953344423)"></use>
		<use href="#star-shape" fill="none" width="50.36188796651926" opacity=".52" transform="matrix(0.9876522838866708,-0.15666194858178897,0.15666194858178897,0.9876522838866708,498.8738500469382,-130.54339839414473)"></use>
		<use href="#star-shape" stroke="none" width="39.59372807439533" opacity=".82" transform="matrix(0.9867679474708725,0.16213888442974267,-0.16213888442974267,0.9867679474708725,100.11783906178508,-194.4763164335371)"></use>
		<use href="#star-shape" fill="none" width="40.28169702202205" opacity=".80" transform="matrix(0.9981671027811334,-0.060518054541750306,0.060518054541750306,0.9981671027811334,705.1249155084624,-168.72920395057793)"></use>
		<use href="#star-shape" stroke="none" width="36.196041236172164" opacity=".62" transform="matrix(0.893430861207191,-0.4492007304564154,0.4492007304564154,0.893430861207191,138.18589621876708,0.7751984489535175)"></use>
		<use href="#star-shape" fill="none" width="51.064739683591526" opacity=".65" transform="matrix(0.9952489631729522,0.09736273056546685,-0.09736273056546685,0.9952489631729522,685.4568581393984,-75.55432523075183)"></use>
		<use href="#star-shape" fill="none" width="44.75898700491739" opacity=".90" transform="matrix(0.904173898715227,0.42716455948744914,-0.42716455948744914,0.904173898715227,812.4307785329196,105.58306595561436)"></use>
		<use href="#star-shape" stroke="none" width="38.36868539357826" opacity=".65" transform="matrix(0.8524716674741049,0.5227734271689018,-0.5227734271689018,0.8524716674741049,412.8061870350157,90.80585208287835)"></use>
		<use href="#star-shape" fill="none" width="53.41535075139689" opacity=".87" transform="matrix(0.9762691984584325,0.2165605045739637,-0.2165605045739637,0.9762691984584325,196.6018703549094,239.35654365196382)"></use>
		<use href="#star-shape" stroke="none" width="48.59148097577087" opacity=".99" transform="matrix(0.9002989334667166,-0.4352721337263535,0.4352721337263535,0.9002989334667166,225.33204776128323,-173.69718677790533)"></use>
		<use href="#star-shape" fill="none" width="28.965832627866245" opacity=".59" transform="matrix(0.9976008106042666,0.06922877062110916,-0.06922877062110916,0.9976008106042666,293.5837334190686,185.72189219059305)"></use>
		<use href="#star-shape" stroke="none" width="35.68792654212494" opacity=".57" transform="matrix(0.7908099006138893,0.6120618441718536,-0.6120618441718536,0.7908099006138893,537.7469907573713,96.10888811177625)"></use>
		<use href="#star-shape" stroke="none" width="40.668893844108055" opacity=".79" transform="matrix(0.8055615129364603,0.592512150825214,-0.592512150825214,0.8055615129364603,368.5521593381076,183.04415630289225)"></use>
		<use href="#star-shape" fill="none" width="34.57698555680363" opacity=".52" transform="matrix(0.8905384381918453,0.4549080018012751,-0.4549080018012751,0.8905384381918453,855.9091804680847,259.8154883529822)"></use>
		<use href="#star-shape" fill="none" width="40.623351402790874" opacity=".85" transform="matrix(0.798640268737355,0.6018087081050966,-0.6018087081050966,0.798640268737355,512.9742667218752,-60.32112061151213)"></use>
		<use href="#star-shape" stroke="none" width="29.041839600329414" opacity=".56" transform="matrix(0.9109289685165705,0.41256322463028267,-0.41256322463028267,0.9109289685165705,575.6315938736196,105.39999972421987)"></use>
		<use href="#star-shape" fill="none" width="47.529862723290684" opacity=".92" transform="matrix(0.8735918201408895,-0.4866593590828473,0.4866593590828473,0.8735918201408895,357.2873353288479,-287.26433622209817)"></use>
		<use href="#star-shape" fill="none" width="33.9503428376024" opacity=".90" transform="matrix(0.9912406823881028,0.13206782188999786,-0.13206782188999786,0.9912406823881028,603.205387369948,108.9272266270014)"></use>
	</g>
</svg>
