<svg xmlns="http://www.w3.org/2000/svg" viewBox="0 0 228.8 186">
    <path fill="#5ea62b" d="M.5 8.1l6.2 177.5 221.9-7.7L222.4.4.5 8.1z"></path>
    <path
        d="M32.2 145.2v2.1c0 7.5 4 11.2 10.3 11.2s10.2-3.7 10.2-10.4-2.9-8.3-7.2-10.9l-3.4-2.1c-1.9-1.2-3-2.4-3-4.9s1-4 3.1-4 3.4 1.8 3.4 5.1v2.2H52v-2.1c0-7.2-3.4-11.1-9.9-11.1s-9.8 4.1-9.8 10.3 3.2 8.8 6.8 11l3.1 2c2.2 1.5 3.7 2.4 3.7 5.1s-1.1 4-3.4 4-3.8-2-3.8-5.2v-2.2h-6.5zm33.4 12.9v-31.3h4.6v-6H53.9v6h4.4v31.3h7.3zm7.8-37.3h7.3v37.3h-7.3zm19 37.3v-15.2h5.7v-6h-5.7v-10.1h7.5v-6H85.1v37.3h7.3zm22.4 0v-31.3h4.6v-6h-16.3v6h4.4v31.3h7.3zm18.6.5c8.3 0 10.9-5.2 10.9-12.8v-25h-7.5v25.4c0 4.1-.7 6.3-3.4 6.3s-3.4-2.2-3.4-6.3v-25.4h-7.5v25c0 7.6 2.5 12.8 10.9 12.8m30-18.2h-.3l-7.9-19.6h-6.7v37.3h6.8v-21.8h.2l9.1 21.8h5.6v-37.3h-6.8v19.6zm32.2 17.7v-19h-10v5.6h3.1v.7c0 4.4-.8 7.1-3.5 7.1s-3.6-2.7-3.6-7.1v-12c0-4.3.7-7 3.5-7s3.4 2.7 3.4 7v2.1h7.2v-.8c0-8.9-2.7-14.3-10.5-14.3s-11.1 5.9-11.1 16.4v5.3c0 10.6 2.9 16.4 9.9 16.4s5.4-1.3 6.3-4l.6 3.5h4.9z"
        fill="#dce8cc"></path>
    <path
        d="M48.6 53.7h-5.8l2.8-14.5h.3l2.7 14.5zm10.7 14.8L50.7 28h-9.5l-8.6 40.5h7.3l1.7-8.7h8l1.7 8.7h8zM72.1 28H61.8v40.5h7V43.3h.3l5.2 25.2h5.1l5-25.2h.3v25.2h7.4V28H82l-4.6 23.4h-.3l-5-23.4zm38.4 25.7h-5.8l2.8-14.5h.3l2.7 14.5zm10.7 14.8L112.6 28h-9.5l-8.6 40.5h7.3l1.7-8.7h8l1.7 8.7h8zM138.9 54c0 5.7-1.4 8.2-5.2 8.2h-2.1V34.3h2.1c3.8 0 5.2 2.6 5.2 8.2v11.4zm8.1-2.4v-6.7c0-11.1-3.7-16.9-12.3-16.9h-11v40.5h11c8.6 0 12.3-5.9 12.3-16.9M169.5 62h-11.2V51.1h8.3v-6.5h-8.3v-10h11.1V28h-18.9v40.5h19V62zm15.1 7.1c9.1 0 11.9-5.7 11.9-14V28h-8.2v27.7c0 4.4-.7 6.9-3.7 6.9s-3.7-2.4-3.7-6.9V28h-8.2v27.1c0 8.3 2.8 14 11.8 14M46.1 99.9h-5.5l2.6-13.8h.2L46 99.9zm10.3 14.2l-8.3-38.8h-9l-8.3 38.8h7l1.8-8.3h7.7l1.5 8.3h7.7zm3.3 0h7V91.5h.2l9.4 22.6H82V75.3h-7v20.4h-.2l-8.1-20.4h-7v38.8zm25.6-32.4h6.6v32.4h7.7V81.7h6.8v-6.4H85.3v6.4zm49.8 32.4h7.2V91.5h.2l9.4 22.6h5.7V75.3h-7v20.4h-.2l-8.3-20.4h-7v38.8zm27.1-38.8h7.7v38.8h-7.7zm27 25.7c0 4.6-.7 7.4-3.5 7.4s-3.7-2.8-3.7-7.4V88.5c0-4.4.7-7.4 3.7-7.4s3.5 3.1 3.5 7.4V101zm7.9-3.8v-5c0-11-3.1-17.3-11.4-17.3s-11.6 6.4-11.6 17.3v5c0 11.2 3.3 17.3 11.6 17.3s11.4-6.1 11.4-17.3M123 101c0 4.6-.7 7.4-3.5 7.4s-3.7-2.8-3.7-7.4V88.5c0-4.4.7-7.4 3.7-7.4s3.5 3.1 3.5 7.4V101zm7.9-3.8v-5c0-11-3.1-17.3-11.4-17.3s-11.6 6.4-11.6 17.3v5c0 11.2 3.3 17.3 11.6 17.3s11.4-6.1 11.4-17.3"
        fill="#fff"></path>
</svg>
