<svg class="_logo_1gn3p_80" width="59" height="54" viewBox="0 0 59 54" fill="none" xmlns="http://www.w3.org/2000/svg">
    <path
        d="M29.052 54c-1.437 0-2.554-.891-3.086-1.431a10399.011 10399.011 0 0 1-20.458-21.06C1.438 27.297-.344 22.491.055 16.821c.319-4.536 2.234-8.748 5.373-11.853C8.648 1.755 12.904 0 17.4 0c5.24 0 8.619 2.673 11.652 5.724C32.084 2.673 35.462 0 40.703 0a16.86 16.86 0 0 1 11.998 4.968c3.14 3.105 5.055 7.317 5.374 11.853.399 5.67-1.41 10.476-5.48 14.688-5.613 5.778-15.829 16.281-20.431 21.033-.559.567-1.676 1.458-3.113 1.458Z"
        fill="rgba(255,255,255,0.534)"></path>
    <path
        d="M29.052 9.288c3.405-3.618 6.437-6.804 11.625-6.804 8.087 0 14.365 6.507 14.924 14.499.346 4.995-1.17 9.045-4.788 12.771-6.013 6.183-16.787 17.28-20.431 21.033-.16.162-.745.702-1.33.702-.586 0-1.171-.54-1.33-.702-3.645-3.753-14.446-14.85-20.431-21.033-3.618-3.726-5.135-7.776-4.789-12.771C3.061 8.991 9.34 2.484 17.426 2.484c5.188 0 8.22 3.213 11.626 6.804Z"
        fill="#F0D722"></path>
    <path
        d="M20.326 29.511h-2.208c-.559 0-.958-.189-.958-.837V18.09c0-.513.4-.918.958-.918h2.367c2.874 0 3.3 1.485 3.3 3.105 0 1.296-.4 2.457-2.023 2.781 1.73.081 2.341 1.485 2.341 2.754.027 1.944-.665 3.699-3.777 3.699Zm-.186-10.692h-.692v3.483h.559c1.57 0 1.596-.972 1.596-1.755 0-1.242-.186-1.728-1.463-1.728Zm-.054 5.13h-.638v3.915h.825c1.33 0 1.463-.918 1.463-1.944 0-1.134-.133-1.971-1.65-1.971Zm10.668 4.158c-.24 1.026-.771 1.539-1.703 1.539-1.064 0-1.516-.513-1.729-1.431l-2.234-9.423c-.24-.918.186-1.728 1.064-1.728.558 0 1.037.27 1.197 1.08l1.436 6.966a14.7 14.7 0 0 1 .267 1.944c.053-.513.16-1.296.266-1.944l1.33-6.966c.133-.702.558-1.08 1.144-1.08.744 0 1.25.594 1.064 1.566l-2.102 9.477Zm7.475 1.539c-3.617 0-4.442-2.052-4.442-6.264 0-4.455 1.835-6.372 4.655-6.372.586 0 1.969.135 2.66.702.134.135.32.378.32.756a.96.96 0 0 1-.958.972c-.505 0-1.01-.378-2.048-.378-1.384 0-2.288.837-2.288 4.509 0 3.429.771 4.239 2.367 4.239.4 0 .639-.054.772-.081v-3.591h-.692c-.585 0-.957-.324-.957-.891s.319-.918.957-.918h2.022c.692 0 .905.324.905 1.08v3.672c0 1.782-1.038 2.565-3.273 2.565Z"
        fill="#252525"></path>
</svg>
