<?xml version="1.0" encoding="UTF-8" standalone="no"?>
<!-- Generator: Adobe Illustrator 24.1.0, SVG Export Plug-In . SVG Version: 6.00 Build 0)  -->

<svg
   version="1.1"
   id="Ebene_2_1_"
   x="0px"
   y="0px"
   viewBox="0 0 154.1 95.383426"
   xml:space="preserve"
   width="154.10001"
   height="95.38343"
   xmlns="http://www.w3.org/2000/svg"
   xmlns:svg="http://www.w3.org/2000/svg"><defs
   id="defs23" />
<style
   type="text/css"
   id="style1">
	.st0{fill:#0072B8;}
	.st1{fill:#89B740;}
	.st2{fill-rule:evenodd;clip-rule:evenodd;fill:#0072B8;}
</style>
<g
   id="g23"
   transform="translate(32.433925,1.4658564)">
	<path
   class="st0"
   d="m 63.282542,31.434144 c -15.5,-3.6 -17.9,4.9 -33,0.2 l -2.3,12.9 -16.5,-22.4 25,-23.6000004 -2.3,11.9000004 c 15.1,4.7 17.2,-2.9000004 32.8,0.6 z"
   id="path1" />
	<path
   class="st1"
   d="m 32.082542,34.034144 c 15.5,3.6 17.8,-4.9 32.9,-0.2 l 2.4,-12.9 16.4,22.4 -25.2,23.5 2.3,-11.8 c -15.1,-4.7 -17.1,3.7 -32.6,0.1 z"
   id="path2" />
	<path
   class="st0"
   d="M 0.66607473,79.317571 H -1.8339253 l -4.1,8.9 c -0.4,0.8 -0.7,1.6 -1,2.5 v 0 c 0,-0.9 0,-1.9 0,-2.7 l -0.8,-8.8 h -2.6999997 l -4.2,8.8 c -0.4,0.9 -0.8,1.8 -1.1,2.7 v 0 c 0,-0.9 0.1,-1.8 0,-2.8 l -0.6,-8.7 h -2.4 l 1,14.4 h 2.8 l 4.2,-8.9 c 0.4,-0.9 0.7999997,-1.8 1.0999997,-2.7 v 0 c 0,0.9 0,1.8 0,2.7 l 0.7,8.8 h 2.9 z"
   id="path3" />
	<path
   class="st2"
   d="m 6.9660747,84.817571 -0.2,0.8 c -0.5,2.4 -2.6,6.3 -4.4,6.3 -0.6,0 -1,-0.5 -1,-1.7 0,-2.4 1.2,-5.5 4.2,-5.5 0.5,-0.1 1,0 1.4,0.1 z m 2.6,-1.6 c -1.1,-0.2 -2.4,-0.3 -3.6,-0.3 -4.8,0 -6.89999997,3.8 -6.89999997,7.7 0,2.2 0.9,3.3 2.49999997,3.3 2.5,0 4.1,-2.5 4.9,-4.1 v 0 c -0.6,1.7 -1,3 -1.2,3.9 h 2.3 c 0.5,-2.7 0.9,-5.2 2,-10.5 z"
   id="path4" />
	<path
   class="st0"
   d="m 18.066075,83.017571 c -0.6,-0.1 -1.1,-0.2 -1.9,-0.2 -3,0 -4.5,1.5 -4.5,3.3 0,2.5 3.1,2.8 3.1,4.4 0,1 -0.9,1.4 -2.2,1.4 -0.6,0 -1.2,-0.1 -1.7,-0.3 l -0.4,2 c 0.5,0.1 1.1,0.2 1.9,0.2 3.2,0 4.8,-1.8 4.8,-3.5 0,-2.3 -3.1,-2.9 -3.1,-4.4 0,-0.8 0.7,-1.4 2,-1.4 0.5,0 1.1,0.1 1.6,0.2 z"
   id="path5" />
	<path
   class="st0"
   d="m 26.366075,83.017571 c -0.6,-0.1 -1.1,-0.2 -1.9,-0.2 -3,0 -4.5,1.5 -4.5,3.3 0,2.5 3.1,2.8 3.1,4.4 0,1 -0.9,1.4 -2.2,1.4 -0.6,0 -1.2,-0.1 -1.7,-0.3 l -0.4,2 c 0.6,0.1 1.1,0.2 1.9,0.2 3.2,0 4.8,-1.8 4.8,-3.5 0,-2.3 -3.1,-2.9 -3.1,-4.4 0,-0.8 0.7,-1.4 2,-1.4 0.5,0 1.1,0.1 1.6,0.2 z"
   id="path6" />
	<path
   class="st2"
   d="m 34.766075,85.617571 c 0,1.2 -1.4,1.8 -4.4,1.9 0.4,-1.6 1.5,-3 3.1,-3 0.8,0 1.3,0.4 1.3,1.1 z m 2.3,-0.3 c 0,-1.3 -0.9,-2.5 -3.4,-2.5 -3.5,0 -6.1,3.2 -6.1,7.5 0,2.4 1.1,3.5 3.8,3.5 1.4,0 2.8,-0.3 3.9,-0.7 v -1.8 c -1,0.4 -2.1,0.6 -3.1,0.6 -1.7,0 -2.2,-0.4 -2.2,-1.8 0,-0.3 0,-0.8 0.1,-1.1 4.5,-0.1 7,-1.3 7,-3.7 z"
   id="path7" />
	<path
   class="st0"
   d="m 45.866075,82.817571 c -2,-0.3 -3.3,1.4 -4.5,3.8 v 0 c 0.6,-1.7 0.9,-2.7 1,-3.6 h -2.2 c -0.3,1.6 -0.7,3.5 -0.9,5 l -1.1,5.5 h 2.3 l 0.5,-2.3 c 0.6,-3.2 2.7,-6.7 4.5,-6.2 z"
   id="path8" />
	<path
   class="st2"
   d="m 54.066075,86.517571 c 0,2.4 -1.2,5.5 -4.2,5.5 -0.6,0 -1,-0.1 -1.4,-0.2 l 0.2,-0.8 c 0.5,-2.4 2.6,-6.2 4.4,-6.2 0.6,-0.1 1,0.5 1,1.7 z m 2.4,-0.4 c 0,-2.2 -0.9,-3.3 -2.5,-3.3 -2.1,0 -3.7,1.8 -4.8,4.1 v 0 c 0.8,-2.1 1,-3.1 1.2,-3.9 l 0.9,-4.8 h -2.3 l -3,15.3 c 1.1,0.2 2.3,0.4 3.6,0.4 4.7,-0.2 6.9,-3.9 6.9,-7.8 z"
   id="path9" />
	<path
   class="st2"
   d="m 64.866075,85.617571 c 0,1.2 -1.4,1.8 -4.4,1.9 0.4,-1.6 1.5,-3 3.1,-3 0.8,0 1.3,0.4 1.3,1.1 z m 2.4,-0.3 c 0,-1.3 -0.9,-2.5 -3.4,-2.5 -3.5,0 -6.1,3.2 -6.1,7.5 0,2.4 1.1,3.5 3.8,3.5 1.4,0 2.8,-0.3 3.9,-0.7 v -1.8 c -1,0.4 -2.1,0.6 -3.1,0.6 -1.7,0 -2.2,-0.4 -2.2,-1.8 0,-0.3 0,-0.8 0.1,-1.1 4.5,-0.1 7,-1.3 7,-3.7 z"
   id="path10" />
	<path
   class="st0"
   d="m 75.966079,83.017571 h -2.8 l 0.8,-3.8 -2.4,0.5 -0.7,3.4 h -2 l -0.4,1.8 h 2.1 l -1.1,5.5 c -0.5,2.5 0.1,3.5 2.4,3.5 0.6,0 1.5,-0.1 2.1,-0.2 l 0.2,-1.8 c -0.4,0.1 -0.9,0.1 -1.5,0.1 -1,0 -1.2,-0.4 -0.9,-1.9 l 1,-5.2 h 2.8 z"
   id="path11" />
	<path
   class="st0"
   d="m 84.066079,82.817571 c -2,-0.3 -3.3,1.4 -4.5,3.8 v 0 c 0.6,-1.7 0.9,-2.7 1,-3.6 h -2.2 c -0.3,1.6 -0.7,3.5 -0.9,5 l -1.1,5.5 h 2.3 l 0.5,-2.3 c 0.6,-3.2 2.7,-6.7 4.5,-6.2 z"
   id="path12" />
	<path
   class="st2"
   d="m 88.466079,83.017571 h -2.3 l -2.1,10.6 h 2.3 z m 0.9,-3 c 0,-0.7 -0.6,-1.3 -1.4,-1.3 -0.8,0 -1.6,0.6 -1.6,1.5 0,0.7 0.6,1.4 1.4,1.4 0.8,-0.1 1.6,-0.8 1.6,-1.6 z"
   id="path13" />
	<path
   class="st2"
   d="m 96.866079,85.617571 c 0,1.2 -1.4,1.8 -4.4,1.9 0.4,-1.6 1.5,-3 3.1,-3 0.8,0 1.3,0.4 1.3,1.1 z m 2.4,-0.3 c 0,-1.3 -0.9,-2.5 -3.4,-2.5 -3.5,0 -6.1,3.2 -6.1,7.5 0,2.4 1.1,3.5 3.8,3.5 1.4,0 2.8,-0.3 3.9,-0.7 v -1.8 c -1,0.4 -2.1,0.6 -3.1,0.6 -1.7,0 -2.2,-0.4 -2.2,-1.8 0,-0.3 0,-0.8 0.1,-1.1 4.5,-0.1 7,-1.3 7,-3.7 z"
   id="path14" />
	<path
   class="st2"
   d="m 108.46608,86.517571 c 0,2.4 -1.2,5.5 -4.2,5.5 -0.6,0 -1,-0.1 -1.4,-0.2 l 0.2,-0.8 c 0.5,-2.4 2.6,-6.2 4.4,-6.2 0.7,-0.1 1,0.5 1,1.7 z m 2.4,-0.4 c 0,-2.2 -0.9,-3.3 -2.5,-3.3 -2.1,0 -3.7,1.8 -4.8,4.1 v 0 c 0.7,-2.1 1,-3.1 1.2,-3.9 l 0.9,-4.8 h -2.3 l -3,15.3 c 1.1,0.2 2.3,0.4 3.6,0.4 4.8,-0.2 6.9,-3.9 6.9,-7.8 z"
   id="path15" />
	<path
   class="st2"
   d="m 119.36608,85.617571 c 0,1.2 -1.4,1.8 -4.4,1.9 0.4,-1.6 1.5,-3 3.1,-3 0.8,0 1.3,0.4 1.3,1.1 z m 2.3,-0.3 c 0,-1.3 -0.9,-2.5 -3.4,-2.5 -3.5,0 -6.1,3.2 -6.1,7.5 0,2.4 1.1,3.5 3.8,3.5 1.4,0 2.8,-0.3 3.9,-0.7 v -1.8 c -1,0.4 -2.1,0.6 -3.1,0.6 -1.6,0 -2.2,-0.4 -2.2,-1.8 0,-0.3 0,-0.8 0.1,-1.1 4.5,-0.1 7,-1.3 7,-3.7 z"
   id="path16" />
	<path
   class="st2"
   d="m -24.333925,69.917571 c 0,1.6 -1.3,2.9 -3.7,2.9 -0.7,0 -1.3,0 -1.6,-0.1 l 0.9,-4.6 c 0.3,0 1.1,0 1.6,0 1.9,0 2.8,0.7 2.8,1.8 z m 0.9,-6.3 c 0,1.8 -1.7,2.8 -3.9,2.8 -0.4,0 -0.8,0 -1.2,0 l 0.9,-4.2 c 0.6,0 1.2,0 1.9,0 1.8,-0.1 2.3,0.5 2.3,1.4 z m 2.6,-0.5 c 0,-1.8 -1.4,-2.8 -4.3,-2.8 -1.7,0 -3.3,0 -4.5,0.1 l -2.8,14.3 c 1.6,0 3.1,0.1 4,0.1 4.2,0 6.6,-2.3 6.6,-5 0,-1.2 -0.8,-2.3 -2.1,-2.6 v 0 c 1.6,-0.7 3.1,-2 3.1,-4.1 z"
   id="path17" />
	<path
   class="st2"
   d="m -12.933925,66.717571 c 0,1.2 -1.4,1.8 -4.4,1.9 0.4,-1.6 1.5,-3 3.1,-3 0.8,0 1.3,0.4 1.3,1.1 z m 2.3,-0.3 c 0,-1.3 -0.9,-2.5 -3.4,-2.5 -3.5,0 -6.1,3.2 -6.1,7.5 0,2.4 1.1,3.5 3.8,3.5 1.4,0 2.8,-0.3 3.9,-0.7 v -1.8 c -1,0.4 -2.1,0.6 -3.1,0.6 -1.7,0 -2.2,-0.4 -2.2,-1.8 0,-0.3 0,-0.8 0.1,-1.1 4.5,-0.1 7,-1.3 7,-3.7 z"
   id="path18" />
	<path
   class="st0"
   d="m -1.7339253,63.917571 c -2,-0.3 -3.3,1.4 -4.5,3.8 v 0 c 0.6,-1.7 0.9,-2.7 1,-3.6 h -2.2 c -0.3,1.6 -0.7,3.5 -0.9,5 l -1.1,5.5 h 2.3 l 0.5,-2.3 c 0.6,-3.2 2.7,-6.7 4.5,-6.2 z"
   id="path19" />
	<polygon
   class="st0"
   points="97.6,26.1 99.9,26.1 102.9,10.6 100.6,10.6 "
   id="polygon19"
   transform="translate(-99.433925,48.617571)" />
	<path
   class="st2"
   d="m 8.1660747,64.117571 h -2.3 l -2.1,10.5 h 2.3 z m 1,-3.1 c 0,-0.7 -0.6,-1.3 -1.4,-1.3 -0.8,0 -1.6,0.6 -1.6,1.5 0,0.7 0.6,1.4 1.4,1.4 0.8,-0.1 1.5,-0.7 1.6,-1.6 z"
   id="path20" />
	<path
   class="st0"
   d="m 19.866075,67.417571 c 0.4,-2.1 -0.2,-3.6 -2.3,-3.6 -2.2,0 -3.8,1.9 -4.9,4 v 0 c 0.7,-2 1,-3.1 1.1,-3.8 h -2.2 c -0.2,1.4 -0.6,3.3 -0.9,5 l -1.1000003,5.5 h 2.3000003 l 0.5,-2.5 c 0.5,-2.5 2.6,-6.3 4.4,-6.3 0.9,0 1.1,0.6 0.8,2.1 l -1.3,6.7 h 2.3 z"
   id="path21" />
	<path
   class="st2"
   d="m 28.966075,66.717571 c 0,1.2 -1.4,1.8 -4.4,1.9 0.4,-1.6 1.5,-3 3.1,-3 0.8,0 1.3,0.4 1.3,1.1 z m 2.4,-0.3 c 0,-1.3 -0.9,-2.5 -3.4,-2.5 -3.5,0 -6.1,3.2 -6.1,7.5 0,2.4 1.1,3.5 3.8,3.5 1.4,0 2.8,-0.3 3.9,-0.7 v -1.8 c -1,0.4 -2.1,0.6 -3.1,0.6 -1.7,0 -2.2,-0.4 -2.2,-1.8 0,-0.3 0,-0.8 0.1,-1.1 4.5,-0.1 7,-1.3 7,-3.7 z"
   id="path22" />
	<path
   class="st0"
   d="m 40.166075,63.917571 c -2,-0.3 -3.3,1.4 -4.5,3.8 v 0 c 0.6,-1.7 0.9,-2.7 1,-3.6 h -2.2 c -0.3,1.6 -0.7,3.5 -0.9,5 l -1.1,5.5 h 2.3 l 0.5,-2.3 c 0.6,-3.2 2.7,-6.7 4.5,-6.2 z"
   id="path23" />
</g>
</svg>
