<?xml version="1.0" encoding="UTF-8" standalone="no"?>
<!-- Generator: Adobe Illustrator 27.2.0, SVG Export Plug-In . SVG Version: 6.00 Build 0)  -->

<svg
   version="1.1"
   id="Ebene_1"
   x="0px"
   y="0px"
   viewBox="0 0 1442.2 776.70001"
   xml:space="preserve"
   sodipodi:docname="hd_logo.svg"
   width="1442.2"
   height="776.70001"
   xmlns:inkscape="http://www.inkscape.org/namespaces/inkscape"
   xmlns:sodipodi="http://sodipodi.sourceforge.net/DTD/sodipodi-0.dtd"
   xmlns="http://www.w3.org/2000/svg"
   xmlns:svg="http://www.w3.org/2000/svg"><defs
   id="defs11" /><sodipodi:namedview
   id="namedview11"
   pagecolor="#ffffff"
   bordercolor="#000000"
   borderopacity="0.25"
   inkscape:showpageshadow="2"
   inkscape:pageopacity="0.0"
   inkscape:pagecheckerboard="0"
   inkscape:deskcolor="#d1d1d1"
   showgrid="false" />
<polygon
   shape-rendering="geometricPrecision"
   points="2044,74.5 2044,95.9 1971.4,95.9 1971.4,674.3 2044,674.3 2044,695.7 1808.7,695.7 1808.7,674.3 1881.2,674.3 1881.2,388.8 1613.4,388.8 1613.4,674.3 1686,674.3 1686,695.7 1450.7,695.7 1450.7,674.3 1523.2,674.3 1523.2,95.9 1450.7,95.9 1450.7,74.5 1686,74.5 1686,95.9 1613.4,95.9 1613.4,361.9 1881.2,361.9 1881.2,95.9 1808.7,95.9 1808.7,74.5 "
   id="polygon1"
   inkscape:label="polygon1"
   transform="translate(-1450.7)" />
<path
   shape-rendering="geometricPrecision"
   d="M 974.5,95.9 H 902.9 V 74.5 h 249.2 c 175.7,0 290.1,119 290.1,305 0,107.9 -40.9,188.8 -96.7,248.3 -59.5,61.4 -146.9,67.9 -195.3,67.9 H 902.8 v -21.4 h 71.6 z m 90.2,578.4 h 91.1 c 107.9,-0.9 142.3,-56.7 161.8,-97.6 18.6,-42.8 22.3,-124.6 22.3,-213.9 0,-132 -13,-266.9 -205.5,-266.9 h -69.8 z"
   id="path1"
   inkscape:label="path1" />
<polygon
   shape-rendering="geometricPrecision"
   points="2223.2,776.7 2197.3,776.7 2197.3,0 2223.2,0 "
   id="polygon2"
   inkscape:label="polygon2"
   transform="translate(-1450.7)" />














</svg>
