<svg width="165" height="55" viewBox="0 0 165 55" fill="none" xmlns="http://www.w3.org/2000/svg">
    <g clip-path="url(#clip0)">
        <path
            d="M131.5 20.6639V10.4479C131.464 10.192 131.487 9.93129 131.57 9.6862C131.652 9.4411 131.791 9.2184 131.974 9.03568C132.158 8.85297 132.382 8.71526 132.629 8.63341C132.875 8.55157 133.137 8.52783 133.395 8.56409H142.249C147.7 8.56409 151.569 10.1363 151.569 15.5559C151.569 20.9755 147.7 22.5477 142.249 22.5477H133.395C133.137 22.584 132.875 22.5603 132.629 22.4784C132.382 22.3966 132.158 22.2589 131.974 22.0761C131.791 21.8934 131.652 21.6707 131.57 21.4256C131.487 21.1806 131.464 20.9198 131.5 20.6639ZM131.5 44.5738V32.445C131.464 32.1892 131.487 31.9284 131.57 31.6833C131.652 31.4382 131.791 31.2155 131.974 31.0328C132.158 30.8501 132.382 30.7123 132.629 30.6305C132.875 30.5487 133.137 30.5249 133.395 30.5612H144.457C150.622 30.5612 154.492 32.7348 154.492 38.5746C154.492 44.4144 150.622 46.4359 144.457 46.4359H133.395C133.137 46.4722 132.875 46.4484 132.629 46.3666C132.382 46.2847 132.158 46.147 131.974 45.9643C131.791 45.7816 131.652 45.5589 131.57 45.3138C131.487 45.0687 131.464 44.8079 131.5 44.5521V44.5738ZM121.618 55H145.011C157.574 55 165.007 49.7326 165.007 39.3644C165.007 33.0029 161.291 27.9673 154.411 25.772C159.075 23.8882 161.998 19.9756 161.998 14.7734C161.998 4.86891 154.965 0 143.196 0H121.618V55ZM0 55H9.80147V32.3291C9.80147 31.3799 10.195 30.9887 10.829 30.9887C11.2225 30.9887 11.5577 31.2278 12.097 31.7784L32.006 55.0362H44.9046L20.4046 26.7791L44.9046 0H32.0862L12.0168 22.8593C11.5432 23.3302 11.1423 23.649 10.7488 23.649C10.195 23.649 9.80147 23.1781 9.80147 22.3883V0H0V55ZM45.7572 55H56.5061L76.4224 19.6423C76.8159 18.9178 77.2896 18.4613 77.7632 18.4613C78.3972 18.4613 78.7106 18.9323 78.7106 19.722L78.4701 55H89.2189L120.992 0H109.922L89.6124 36.1402C89.2189 36.7705 88.9857 37.1618 88.5121 37.1618C88.0384 37.1618 87.6376 36.7705 87.6376 35.9808V0H77.3697L57.4534 36.1402C56.9797 36.9227 56.6591 37.1618 56.1854 37.1618C55.7117 37.1618 55.3182 36.8502 55.3182 35.9808L55.5587 0H45.7572V55Z"
            fill="#0003E2"></path>
    </g>
    <defs>
        <clipPath id="clip0">
            <rect width="165" height="55" fill="white"></rect>
        </clipPath>
    </defs>
</svg>
