<svg xmlns="http://www.w3.org/2000/svg" viewBox="0 0 800 800">
	<style>
		circle {
			stroke-width: 2;
		}
	</style>
	<g>
		<circle r="15.5" cx="56" cy="315" stroke="none" opacity="0.16"></circle>
		<circle r="7" cx="73" cy="752" fill="none" opacity="0.62"></circle>
		<circle r="6" cx="407" cy="272" fill="none" opacity="0.43"></circle>
		<circle r="11" cx="698" cy="662" stroke="none" opacity="0.46"></circle>
		<circle r="8.5" cx="494" cy="504" stroke="none" opacity="0.21"></circle>
		<circle r="9.5" cx="693" cy="774" fill="none" opacity="0.80"></circle>
		<circle r="11.5" cx="203" cy="577" stroke="none" opacity="0.66"></circle>
		<circle r="8.5" cx="769" cy="784" fill="none" opacity="0.74"></circle>
		<circle r="17.5" cx="224" cy="431" stroke="none" opacity="0.48"></circle>
		<circle r="12.5" cx="525" cy="68" stroke="none" opacity="0.11"></circle>
		<circle r="11" cx="473" cy="742" fill="none" opacity="0.43"></circle>
		<circle r="8" cx="513" cy="461" fill="none" opacity="0.48"></circle>
		<circle r="10.5" cx="161" cy="608" fill="none" opacity="0.74"></circle>
		<circle r="8.5" cx="680" cy="200" stroke="none" opacity="0.73"></circle>
		<circle r="9" cx="674" cy="728" fill="none" opacity="0.66"></circle>
		<circle r="5.5" cx="555" cy="392" fill="none" opacity="0.82"></circle>
		<circle r="14" cx="236" cy="121" fill="none" opacity="0.77"></circle>
		<circle r="11.5" cx="707" cy="70" fill="none" opacity="0.50"></circle>
		<circle r="12.5" cx="159" cy="723" stroke="none" opacity="0.31"></circle>
		<circle r="12.5" cx="85" cy="711" stroke="none" opacity="0.43"></circle>
		<circle r="14" cx="296" cy="461" fill="none" opacity="0.78"></circle>
		<circle r="8.5" cx="755" cy="754" stroke="none" opacity="0.38"></circle>
		<circle r="9.5" cx="37" cy="736" stroke="none" opacity="0.55"></circle>
		<circle r="10" cx="706" cy="579" fill="none" opacity="0.37"></circle>
		<circle r="9.5" cx="348" cy="743" stroke="none" opacity="1.00"></circle>
		<circle r="8" cx="68" cy="424" stroke="none" opacity="0.93"></circle>
		<circle r="15" cx="222" cy="742" fill="none" opacity="0.46"></circle>
		<circle r="16.5" cx="282" cy="516" stroke="none" opacity="0.59"></circle>
		<circle r="15.5" cx="260" cy="626" fill="none" opacity="0.51"></circle>
		<circle r="14.5" cx="364" cy="437" stroke="none" opacity="0.65"></circle>
		<circle r="9.5" cx="311" cy="782" stroke="none" opacity="0.61"></circle>
		<circle r="7.5" cx="371" cy="258" stroke="none" opacity="0.86"></circle>
		<circle r="14" cx="479" cy="114" stroke="none" opacity="0.61"></circle>
		<circle r="10" cx="653" cy="604" stroke="none" opacity="0.37"></circle>
		<circle r="10.5" cx="720" cy="22" stroke="none" opacity="0.56"></circle>
		<circle r="10.5" cx="80" cy="642" fill="none" opacity="0.39"></circle>
		<circle r="15.5" cx="307" cy="27" stroke="none" opacity="0.44"></circle>
		<circle r="14.5" cx="771" cy="336" stroke="none" opacity="0.13"></circle>
		<circle r="9.5" cx="368" cy="707" stroke="none" opacity="0.90"></circle>
		<circle r="7.5" cx="531" cy="611" stroke="none" opacity="0.14"></circle>
		<circle r="9.5" cx="615" cy="161" fill="none" opacity="0.79"></circle>
		<circle r="8" cx="235" cy="259" fill="none" opacity="0.57"></circle>
		<circle r="5.5" cx="527" cy="409" fill="none" opacity="0.45"></circle>
		<circle r="10" cx="766" cy="396" fill="none" opacity="0.84"></circle>
		<circle r="9.5" cx="100" cy="120" stroke="none" opacity="0.37"></circle>
		<circle r="10.5" cx="751" cy="552" stroke="none" opacity="0.12"></circle>
		<circle r="4.5" cx="574" cy="675" fill="none" opacity="0.81"></circle>
		<circle r="9" cx="337" cy="207" fill="none" opacity="0.87"></circle>
		<circle r="7.5" cx="209" cy="19" fill="none" opacity="0.65"></circle>
		<circle r="9.5" cx="712" cy="155" stroke="none" opacity="0.76"></circle>
		<circle r="7.5" cx="364" cy="226" fill="none" opacity="0.78"></circle>
		<circle r="10.5" cx="323" cy="699" fill="none" opacity="0.12"></circle>
		<circle r="9.5" cx="207" cy="379" fill="none" opacity="0.12"></circle>
		<circle r="17.5" cx="31" cy="252" fill="none" opacity="0.50"></circle>
		<circle r="11.5" cx="778" cy="634" fill="none" opacity="0.71"></circle>
		<circle r="14" cx="35" cy="369" stroke="none" opacity="0.41"></circle>
		<circle r="12.5" cx="77" cy="588" stroke="none" opacity="0.36"></circle>
		<circle r="11.5" cx="549" cy="251" fill="none" opacity="0.24"></circle>
		<circle r="9" cx="724" cy="226" stroke="none" opacity="0.68"></circle>
		<circle r="6.5" cx="106" cy="79" fill="none" opacity="0.41"></circle>
		<circle r="10" cx="359" cy="664" fill="none" opacity="0.59"></circle>
		<circle r="7.5" cx="296" cy="215" stroke="none" opacity="0.55"></circle>
		<circle r="6.5" cx="646" cy="554" fill="none" opacity="0.68"></circle>
		<circle r="12" cx="19" cy="608" stroke="none" opacity="0.94"></circle>
		<circle r="5.5" cx="47" cy="13" fill="none" opacity="0.90"></circle>
		<circle r="10.5" cx="456" cy="565" stroke="none" opacity="0.29"></circle>
		<circle r="10.5" cx="195" cy="74" fill="none" opacity="0.96"></circle>
		<circle r="14.5" cx="118" cy="278" fill="none" opacity="0.43"></circle>
		<circle r="6" cx="413" cy="299" stroke="none" opacity="0.65"></circle>
		<circle r="9" cx="412" cy="694" fill="none" opacity="0.38"></circle>
		<circle r="7" cx="308" cy="320" stroke="none" opacity="0.28"></circle>
		<circle r="8" cx="727" cy="425" fill="none" opacity="0.22"></circle>
		<circle r="8.5" cx="599" cy="210" fill="none" opacity="0.46"></circle>
		<circle r="10.5" cx="463" cy="453" stroke="none" opacity="0.57"></circle>
		<circle r="9.5" cx="782" cy="434" stroke="none" opacity="0.93"></circle>
		<circle r="11" cx="118" cy="653" stroke="none" opacity="0.24"></circle>
		<circle r="5.5" cx="593" cy="363" stroke="none" opacity="0.53"></circle>
		<circle r="15.5" cx="484" cy="48" stroke="none" opacity="0.63"></circle>
		<circle r="10.5" cx="104" cy="166" stroke="none" opacity="0.95"></circle>
		<circle r="8.5" cx="602" cy="620" stroke="none" opacity="0.91"></circle>
		<circle r="9.5" cx="126" cy="443" stroke="none" opacity="0.30"></circle>
		<circle r="7.5" cx="786" cy="106" stroke="none" opacity="0.27"></circle>
		<circle r="8" cx="657" cy="241" stroke="none" opacity="0.15"></circle>
		<circle r="11" cx="195" cy="780" stroke="none" opacity="0.21"></circle>
		<circle r="8.5" cx="738" cy="118" fill="none" opacity="0.77"></circle>
		<circle r="6.5" cx="300" cy="296" stroke="none" opacity="0.78"></circle>
		<circle r="7" cx="629" cy="717" fill="none" opacity="0.99"></circle>
		<circle r="7" cx="632" cy="353" fill="none" opacity="0.54"></circle>
		<circle r="14" cx="265" cy="362" stroke="none" opacity="0.50"></circle>
		<circle r="8" cx="469" cy="367" fill="none" opacity="0.27"></circle>
		<circle r="7.5" cx="690" cy="535" fill="none" opacity="0.68"></circle>
		<circle r="9" cx="83" cy="782" stroke="none" opacity="0.16"></circle>
		<circle r="4" cx="127" cy="14" fill="none" opacity="0.32"></circle>
		<circle r="14" cx="38" cy="108" stroke="none" opacity="0.26"></circle>
		<circle r="8.5" cx="745" cy="459" fill="none" opacity="0.85"></circle>
		<circle r="4.5" cx="638" cy="513" stroke="none" opacity="0.70"></circle>
		<circle r="12" cx="306" cy="649" fill="none" opacity="0.90"></circle>
		<circle r="11" cx="547" cy="180" stroke="none" opacity="0.24"></circle>
		<circle r="17" cx="271" cy="694" stroke="none" opacity="0.55"></circle>
		<circle r="11.5" cx="308" cy="738" stroke="none" opacity="0.84"></circle>
		<circle r="13.5" cx="33" cy="659" stroke="none" opacity="0.28"></circle>
		<circle r="10.5" cx="397" cy="751" fill="none" opacity="0.75"></circle>
		<circle r="10.5" cx="309" cy="166" fill="none" opacity="0.49"></circle>
		<circle r="6" cx="597" cy="478" stroke="none" opacity="0.37"></circle>
		<circle r="11.5" cx="94" cy="508" fill="none" opacity="0.13"></circle>
		<circle r="11" cx="779" cy="36" fill="none" opacity="0.57"></circle>
		<circle r="9" cx="336" cy="265" stroke="none" opacity="0.87"></circle>
		<circle r="7" cx="481" cy="266" stroke="none" opacity="0.70"></circle>
		<circle r="11.5" cx="411" cy="470" fill="none" opacity="0.84"></circle>
		<circle r="7" cx="11" cy="416" stroke="none" opacity="0.76"></circle>
		<circle r="5.5" cx="627" cy="764" stroke="none" opacity="0.51"></circle>
		<circle r="10" cx="733" cy="622" fill="none" opacity="0.95"></circle>
		<circle r="19.5" cx="349" cy="62" fill="none" opacity="0.55"></circle>
		<circle r="8.5" cx="184" cy="403" stroke="none" opacity="0.25"></circle>
		<circle r="10.5" cx="23" cy="779" stroke="none" opacity="0.31"></circle>
		<circle r="9" cx="510" cy="571" fill="none" opacity="0.42"></circle>
		<circle r="7.5" cx="363" cy="783" stroke="none" opacity="0.41"></circle>
		<circle r="12.5" cx="97" cy="397" stroke="none" opacity="0.96"></circle>
		<circle r="6.5" cx="519" cy="327" stroke="none" opacity="0.57"></circle>
		<circle r="10" cx="33" cy="491" fill="none" opacity="0.97"></circle>
		<circle r="13.5" cx="251" cy="560" stroke="none" opacity="0.52"></circle>
		<circle r="8" cx="388" cy="202" stroke="none" opacity="0.46"></circle>
		<circle r="13" cx="260" cy="309" stroke="none" opacity="0.12"></circle>
		<circle r="9.5" cx="703" cy="386" stroke="none" opacity="0.25"></circle>
		<circle r="14" cx="75" cy="211" stroke="none" opacity="0.87"></circle>
		<circle r="6.5" cx="158" cy="19" fill="none" opacity="0.72"></circle>
		<circle r="9" cx="136" cy="689" stroke="none" opacity="0.95"></circle>
		<circle r="13" cx="136" cy="520" stroke="none" opacity="0.43"></circle>
		<circle r="14" cx="136" cy="770" fill="none" opacity="0.54"></circle>
		<circle r="8.5" cx="623" cy="17" stroke="none" opacity="0.65"></circle>
		<circle r="8.5" cx="784" cy="536" stroke="none" opacity="0.74"></circle>
		<circle r="15" cx="267" cy="767" stroke="none" opacity="0.33"></circle>
		<circle r="4" cx="559" cy="656" fill="none" opacity="0.89"></circle>
		<circle r="7.5" cx="524" cy="530" stroke="none" opacity="0.99"></circle>
		<circle r="12" cx="169" cy="649" stroke="none" opacity="0.72"></circle>
		<circle r="10" cx="756" cy="82" fill="none" opacity="0.30"></circle>
		<circle r="7.5" cx="404" cy="153" stroke="none" opacity="0.63"></circle>
		<circle r="18" cx="356" cy="544" fill="none" opacity="0.50"></circle>
		<circle r="17" cx="209" cy="685" fill="none" opacity="0.20"></circle>
		<circle r="13.5" cx="162" cy="126" fill="none" opacity="0.28"></circle>
		<circle r="10" cx="483" cy="219" fill="none" opacity="0.77"></circle>
		<circle r="7.5" cx="597" cy="433" stroke="none" opacity="0.71"></circle>
		<circle r="6.5" cx="422" cy="330" fill="none" opacity="0.47"></circle>
		<circle r="9.5" cx="577" cy="323" stroke="none" opacity="0.93"></circle>
		<circle r="9" cx="566" cy="739" stroke="none" opacity="0.60"></circle>
		<circle r="8" cx="443" cy="780" stroke="none" opacity="0.65"></circle>
		<circle r="11.5" cx="424" cy="522" stroke="none" opacity="0.61"></circle>
		<circle r="8" cx="661" cy="109" fill="none" opacity="0.99"></circle>
		<circle r="17.5" cx="197" cy="177" stroke="none" opacity="0.37"></circle>
		<circle r="4.5" cx="595" cy="512" fill="none" opacity="0.79"></circle>
		<circle r="10" cx="316" cy="355" stroke="none" opacity="0.61"></circle>
		<circle r="7" cx="377" cy="164" stroke="none" opacity="0.39"></circle>
		<circle r="10.5" cx="272" cy="245" fill="none" opacity="0.72"></circle>
		<circle r="8" cx="61" cy="51" fill="none" opacity="0.87"></circle>
		<circle r="7" cx="513" cy="363" stroke="none" opacity="0.24"></circle>
		<circle r="8" cx="35" cy="436" stroke="none" opacity="0.52"></circle>
		<circle r="15.5" cx="564" cy="110" fill="none" opacity="0.13"></circle>
		<circle r="7" cx="525" cy="661" fill="none" opacity="0.14"></circle>
		<circle r="10.5" cx="526" cy="769" stroke="none" opacity="0.82"></circle>
		<circle r="8" cx="415" cy="377" stroke="none" opacity="0.63"></circle>
		<circle r="5" cx="98" cy="46" fill="none" opacity="0.81"></circle>
		<circle r="14.5" cx="206" cy="488" stroke="none" opacity="0.39"></circle>
		<circle r="9" cx="390" cy="347" stroke="none" opacity="0.98"></circle>
		<circle r="10" cx="356" cy="364" fill="none" opacity="0.55"></circle>
		<circle r="13.5" cx="124" cy="582" stroke="none" opacity="0.53"></circle>
		<circle r="12.5" cx="470" cy="625" fill="none" opacity="0.80"></circle>
		<circle r="7" cx="280" cy="196" stroke="none" opacity="0.22"></circle>
		<circle r="8" cx="149" cy="61" stroke="none" opacity="0.38"></circle>
		<circle r="7.5" cx="665" cy="150" stroke="none" opacity="0.97"></circle>
		<circle r="15" cx="386" cy="108" stroke="none" opacity="0.25"></circle>
		<circle r="11" cx="211" cy="622" fill="none" opacity="0.36"></circle>
		<circle r="7.5" cx="642" cy="399" fill="none" opacity="0.44"></circle>
		<circle r="14" cx="752" cy="708" stroke="none" opacity="0.12"></circle>
		<circle r="11" cx="17" cy="44" fill="none" opacity="0.40"></circle>
		<circle r="5" cx="587" cy="391" fill="none" opacity="0.56"></circle>
		<circle r="9.5" cx="438" cy="139" fill="none" opacity="0.65"></circle>
		<circle r="7.5" cx="602" cy="567" fill="none" opacity="0.51"></circle>
		<circle r="11.5" cx="776" cy="484" fill="none" opacity="0.31"></circle>
		<circle r="13.5" cx="198" cy="335" fill="none" opacity="0.41"></circle>
		<circle r="11.5" cx="456" cy="684" fill="none" opacity="0.90"></circle>
		<circle r="4.5" cx="99" cy="17" fill="none" opacity="0.35"></circle>
		<circle r="9" cx="456" cy="319" stroke="none" opacity="0.75"></circle>
		<circle r="9" cx="716" cy="485" stroke="none" opacity="0.91"></circle>
		<circle r="7.5" cx="295" cy="271" stroke="none" opacity="0.56"></circle>
		<circle r="10.5" cx="718" cy="323" fill="none" opacity="0.38"></circle>
		<circle r="11" cx="534" cy="18" fill="none" opacity="0.36"></circle>
		<circle r="8" cx="346" cy="311" fill="none" opacity="0.67"></circle>
		<circle r="16" cx="769" cy="164" stroke="none" opacity="0.70"></circle>
		<circle r="14" cx="313" cy="117" fill="none" opacity="0.46"></circle>
		<circle r="14" cx="407" cy="612" stroke="none" opacity="0.88"></circle>
		<circle r="9" cx="637" cy="665" stroke="none" opacity="0.55"></circle>
		<circle r="13" cx="252" cy="59" stroke="none" opacity="0.80"></circle>
		<circle r="7.5" cx="561" cy="567" fill="none" opacity="0.12"></circle>
		<circle r="7" cx="637" cy="460" fill="none" opacity="0.47"></circle>
		<circle r="8.5" cx="373" cy="294" stroke="none" opacity="0.30"></circle>
		<circle r="12" cx="211" cy="291" fill="none" opacity="0.37"></circle>
		<circle r="7" cx="13" cy="466" stroke="none" opacity="0.59"></circle>
		<circle r="10" cx="431" cy="194" fill="none" opacity="0.97"></circle>
		<circle r="9.5" cx="604" cy="272" stroke="none" opacity="0.83"></circle>
		<circle r="13.5" cx="583" cy="53" fill="none" opacity="0.45"></circle>
		<circle r="12.5" cx="644" cy="62" stroke="none" opacity="0.28"></circle>
		<circle r="8" cx="439" cy="253" stroke="none" opacity="0.40"></circle>
		<circle r="9" cx="17" cy="708" stroke="none" opacity="0.81"></circle>
		<circle r="13" cx="295" cy="405" fill="none" opacity="0.13"></circle>
		<circle r="11.5" cx="149" cy="194" fill="none" opacity="0.50"></circle>
		<circle r="10.5" cx="166" cy="557" stroke="none" opacity="0.81"></circle>
		<circle r="8" cx="670" cy="495" stroke="none" opacity="0.17"></circle>
		<circle r="9.5" cx="189" cy="526" stroke="none" opacity="0.71"></circle>
		<circle r="10" cx="30" cy="532" stroke="none" opacity="0.20"></circle>
		<circle r="12.5" cx="164" cy="452" stroke="none" opacity="0.44"></circle>
		<circle r="12" cx="259" cy="166" fill="none" opacity="0.79"></circle>
		<circle r="6" cx="660" cy="289" stroke="none" opacity="0.11"></circle>
		<circle r="9.5" cx="45" cy="564" fill="none" opacity="0.66"></circle>
		<circle r="7" cx="495" cy="416" stroke="none" opacity="0.81"></circle>
		<circle r="13.5" cx="337" cy="608" fill="none" opacity="0.38"></circle>
		<circle r="4" cx="615" cy="527" fill="none" opacity="0.52"></circle>
		<circle r="4" cx="608" cy="789" stroke="none" opacity="0.14"></circle>
		<circle r="15" cx="28" cy="171" fill="none" opacity="0.41"></circle>
		<circle r="10.5" cx="150" cy="393" stroke="none" opacity="0.52"></circle>
		<circle r="8.5" cx="555" cy="462" stroke="none" opacity="1.00"></circle>
		<circle r="10" cx="125" cy="229" stroke="none" opacity="0.34"></circle>
		<circle r="6.5" cx="673" cy="326" fill="none" opacity="0.37"></circle>
		<circle r="10.5" cx="495" cy="165" stroke="none" opacity="0.44"></circle>
		<circle r="10" cx="80" cy="463" stroke="none" opacity="0.61"></circle>
		<circle r="8" cx="313" cy="239" fill="none" opacity="0.28"></circle>
		<circle r="15" cx="770" cy="247" stroke="none" opacity="0.50"></circle>
		<circle r="8.5" cx="441" cy="407" fill="none" opacity="0.85"></circle>
		<circle r="25.5" cx="423" cy="41" fill="none" opacity="0.16"></circle>
		<circle r="17" cx="130" cy="342" stroke="none" opacity="0.90"></circle>
		<circle r="8" cx="509" cy="693" fill="none" opacity="0.70"></circle>
		<circle r="9.5" cx="675" cy="437" stroke="none" opacity="0.72"></circle>
		<circle r="5.5" cx="560" cy="629" stroke="none" opacity="0.61"></circle>
		<circle r="13" cx="232" cy="221" stroke="none" opacity="0.33"></circle>
		<circle r="6.5" cx="593" cy="699" fill="none" opacity="0.42"></circle>
		<circle r="15" cx="178" cy="247" stroke="none" opacity="0.45"></circle>
		<circle r="7.5" cx="403" cy="238" stroke="none" opacity="0.93"></circle>
		<circle r="7" cx="507" cy="294" fill="none" opacity="0.96"></circle>
		<circle r="6" cx="565" cy="519" stroke="none" opacity="0.19"></circle>
		<circle r="7.5" cx="348" cy="168" fill="none" opacity="0.15"></circle>
	</g>
</svg>
