<?xml version="1.0" encoding="UTF-8" standalone="no"?>
<!-- Created with Inkscape (http://www.inkscape.org/) -->

<svg
   width="66.68499mm"
   height="28.442711mm"
   viewBox="0 0 66.68499 28.442711"
   version="1.1"
   id="svg1"
   xml:space="preserve"
   xmlns="http://www.w3.org/2000/svg"
   xmlns:svg="http://www.w3.org/2000/svg"><defs
     id="defs1" /><g
     id="layer1"
     transform="translate(-59.845987,-126.79297)"><path
       style="fill:#000000"
       d="M 93.015778,155.23568 H 60.099246 l -0.126629,-0.33073 -0.12663,-0.33073 0.06879,-13.89062 0.06879,-13.89063 h 33.205208 33.205205 l 0.0685,13.86065 0.0685,13.86065 -0.29936,0.36071 -0.29935,0.3607 z m 0.437576,-2.20313 31.088536,-0.0458 v -12.03854 -12.03854 l -31.204537,-0.0672 -31.204543,-0.0672 -0.210676,0.33182 -0.210677,0.33182 -0.0041,11.68577 -0.0041,11.68576 0.330729,0.13402 0.330729,0.13403 z m 12.699996,-1.24855 -0.13229,-0.004 -0.46302,-0.26968 -0.46302,-0.26969 v -2.6483 -2.6483 l -0.26458,0.16352 -0.26459,0.16352 v 2.64698 2.64699 l -0.85989,-0.0829 -0.8599,-0.0829 v -3.43959 -3.43958 l 3.08563,-0.0743 3.08563,-0.0743 0.29802,0.90299 0.29801,0.90299 -0.12155,1.94947 -0.12156,1.94948 -0.0209,0.6993 -0.0209,0.6993 -0.39687,0.15229 -0.39688,0.1523 -0.39687,-0.1523 -0.39688,-0.15229 v -2.77187 -2.77187 l -0.33073,0.10964 -0.33072,0.10965 -0.0764,2.61511 -0.0764,2.61512 -0.32047,0.20366 -0.32046,0.20365 z m 6.59849,-0.0752 -1.17453,0.12355 -0.59531,-0.42999 -0.59531,-0.42999 v -2.99531 -2.99531 l 0.39462,-0.32751 0.39462,-0.32751 h 1.37254 1.37254 l 0.3495,0.47798 0.34951,0.47797 v 1.26304 1.26303 l -0.49438,0.26459 -0.49438,0.26458 -0.14714,-0.14714 -0.14714,-0.14714 -0.54911,0.17428 -0.5491,0.17428 v 0.77592 0.77592 h 0.26458 0.26458 v -0.41364 -0.41364 l 0.8599,0.0829 0.85989,0.0829 0.0774,0.6617 0.0774,0.6617 -0.35804,0.48964 -0.35803,0.48964 z m -0.24849,-5.20434 h 0.26458 v -0.26459 -0.26458 h -0.26458 -0.26458 v 0.26458 0.26459 z m 3.64295,5.29166 h -0.48456 l -0.13254,-0.3454 -0.13255,-0.34541 0.0747,-3.29261 0.0747,-3.29262 1.74429,-0.0773 1.7443,-0.0773 0.3146,0.37907 0.3146,0.37907 -0.0745,3.27009 -0.0745,3.27009 h -0.79375 -0.79375 l -0.0751,-2.84427 -0.0751,-2.84427 h -0.25563 -0.25563 v 2.59292 2.59291 l -0.3175,0.3175 -0.3175,0.3175 z m 6.13283,-0.0536 -0.67527,0.0787 -0.44921,-0.49637 -0.44922,-0.49638 v -2.44396 -2.44396 l -0.24924,-0.46571 -0.24924,-0.46571 0.35578,-1.03489 0.35578,-1.03489 0.40045,-0.2526 0.40045,-0.2526 0.41905,0.34779 0.41906,0.34778 v 0.36807 0.36807 l 0.31803,0.50924 0.31803,0.50925 -0.33954,0.63444 -0.33954,0.63443 0.12846,2.09388 0.12846,2.09387 0.0915,0.66146 0.0915,0.66145 z m -56.953403,-0.2703 -1.453414,0.12053 -0.447372,-0.68277 -0.447372,-0.68278 0.0905,-2.79745 0.0905,-2.79746 0.396875,-0.25048 0.396875,-0.25048 1.336146,-0.004 1.336146,-0.004 0.3175,0.3175 0.3175,0.3175 v 1.52954 1.52955 l -0.595313,0.12703 -0.595312,0.12703 -0.529167,0.0786 -0.529167,0.0786 -0.08291,0.85773 -0.08291,0.85773 h 0.250489 0.250488 l 0.13838,-0.52917 0.13838,-0.52917 h 0.81852 0.818521 l -0.0041,0.8599 -0.0041,0.85989 -0.23618,0.37309 -0.23618,0.37309 z m 0.0255,-5.19575 0.111411,-0.33423 -0.159853,-0.15985 -0.159852,-0.15986 -0.158786,0.15879 -0.158786,0.15879 0.207227,0.3353 0.207227,0.3353 z m 3.72811,5.20326 -0.693805,0.0805 -0.166091,-0.43283 -0.166091,-0.43283 v -2.86714 -2.86714 l 0.160599,-0.41851 0.160599,-0.41852 h 1.638567 1.638568 l 0.3175,0.3175 0.3175,0.3175 v 3.26268 3.26268 l -0.432838,0.16609 -0.432838,0.1661 -0.427058,-0.26828 -0.427058,-0.26829 -0.134571,-2.75038 -0.134572,-2.75039 -0.195951,0.66146 -0.195951,0.66146 -0.06635,2.24895 -0.06635,2.24896 z m 5.867583,0.0518 h -0.795955 l -0.420314,-0.64148 -0.420313,-0.64148 0.04709,-2.0705 0.04709,-2.0705 -0.181812,-0.69207 -0.181812,-0.69208 0.286381,-1.06353 0.28638,-1.06354 0.460989,-0.11956 0.460989,-0.11955 0.330729,0.11127 0.33073,0.11128 v 0.40015 0.40015 l 0.447586,0.7577 0.447587,0.75771 -0.447587,0.49458 -0.447586,0.49457 v 1.94271 1.94271 l 0.428964,0.474 0.428964,0.474 -0.156077,0.40673 -0.156077,0.40673 z m 3.6802,0 h -1.231335 l -0.437883,-0.48386 -0.437882,-0.48385 v -2.63228 -2.63227 l 0.411878,-0.58804 0.411878,-0.58804 h 1.407809 1.407808 l 0.31085,0.37455 0.31085,0.37455 -0.08002,1.54368 -0.08002,1.54368 -1.058333,0.13229 -1.058334,0.13229 -0.08291,0.8599 -0.08291,0.85989 h 0.263518 0.263517 l 0.172833,-0.54454 0.172833,-0.54455 0.704893,0.0815 0.704892,0.0815 0.08697,0.91436 0.08697,0.91436 -0.46827,0.34241 -0.468271,0.34241 z m 0.217857,-5.25509 0.111411,-0.33423 -0.159853,-0.15986 -0.159852,-0.15985 -0.158786,0.15879 -0.158786,0.15878 0.207227,0.3353 0.207227,0.3353 z m 3.72811,5.20326 -0.693805,0.0805 -0.166091,-0.43283 -0.166091,-0.43283 v -2.98867 -2.98867 l 0.330729,-0.27423 0.330729,-0.27422 1.322917,0.0178 1.322916,0.0178 0.560152,0.36369 0.560151,0.36369 0.274944,-0.73499 0.274943,-0.735 0.155588,-0.48074 0.155589,-0.48074 0.726846,0.0839 0.726846,0.0839 0.08205,0.52917 0.08205,0.52916 0.304392,0.61165 0.304392,0.61164 -0.318031,0.50924 -0.318031,0.50925 v 2.10464 2.10465 l 0.264584,0.16352 0.264583,0.16352 v 0.51355 0.51355 h -0.873125 -0.873125 l -0.3175,-0.3175 -0.3175,-0.3175 v -2.56052 -2.56052 l -0.378813,-0.31438 -0.378813,-0.31439 -0.08421,0.8773 -0.08421,0.8773 -0.727604,0.0837 -0.727604,0.0837 v -0.53113 -0.53113 l -0.256827,-0.15872 -0.256826,-0.15873 -0.139842,0.60613 -0.139842,0.60614 -0.06635,2.24895 -0.06635,2.24896 z m 9.554757,-0.004 -1.722381,0.0768 -0.32814,-0.32814 -0.32814,-0.32814 0.0041,-1.20386 0.0041,-1.20385 0.194386,-0.27855 0.194386,-0.27855 0.992187,-0.60293 0.992188,-0.60292 v -0.3312 -0.3312 l -0.165138,-0.16514 -0.165137,-0.16514 -0.446599,0.55153 -0.446599,0.55153 -0.578888,-0.18374 -0.578889,-0.18373 0.0041,-0.70977 0.0041,-0.70978 0.227808,-0.35954 0.227808,-0.35954 1.218166,-0.1373 1.218166,-0.13731 0.674694,0.44208 0.674693,0.44207 -0.0742,3.22977 -0.0742,3.22977 z m -0.26199,-1.53198 h 0.264583 v -0.52916 -0.52917 H 91.865854 91.60127 v 0.52917 0.52916 z m 4.012847,1.5875 h -0.749653 l -0.176389,-0.17638 -0.176389,-0.17639 v -3.2308 -3.2308 l 0.384178,-0.31884 0.384179,-0.31884 0.541863,0.17198 0.541864,0.17198 v 3.55405 3.55404 z m 2.667882,-0.0494 -0.859896,0.0829 v -3.56033 -3.56033 l 0.330729,-0.1083 0.330729,-0.1083 1.537571,0.10542 1.537574,0.10542 0.25691,0.67574 0.25692,0.67574 -0.0747,2.80456 -0.0747,2.80456 -0.8599,0.0829 -0.8599,0.0829 v -2.64698 -2.64698 l -0.255214,-0.15774 -0.255219,-0.15773 -0.07551,2.72181 -0.07551,2.7218 z m -2.778125,-7.93669 -0.727604,0.0837 v -0.56431 -0.56432 l 0.727604,0.0837 0.727604,0.0837 v 0.39688 0.39687 z m 9.525002,-2.816 -0.33073,0.10246 -0.79375,-0.0906 -0.79375,-0.0906 -0.33073,-0.43098 -0.33073,-0.43099 v -2.99573 -2.99573 l -0.31803,-0.50925 -0.31803,-0.50925 0.30702,-0.61164 0.30703,-0.61164 0.0772,-0.66146 0.0771,-0.66145 h 0.92604 0.92604 l 0.0819,0.70824 0.0819,0.70824 0.38117,0.31634 0.38117,0.31634 v 0.46438 0.46437 l -0.39688,0.32938 -0.39687,0.32937 v 2.58104 2.58104 l 0.39687,0.32938 0.39688,0.32938 v 0.46846 0.46846 z m 3.9026,0.10322 -1.32292,0.13969 -0.66145,-0.35024 -0.66146,-0.35024 -0.0732,-3.72466 -0.0732,-3.72465 0.44457,-0.36896 0.44457,-0.36896 h 1.56816 1.56817 l 0.37554,0.51359 0.37555,0.51359 v 3.33845 3.33844 l -0.33073,0.45213 -0.33073,0.45214 z m -0.39687,-1.73656 h 0.26458 v -2.64584 -2.64583 h -0.26458 -0.26459 v 2.64583 2.64584 z m 4.54516,1.82139 -0.17954,-0.0307 -0.46302,-0.121 -0.46302,-0.121 v -4.19188 -4.19189 l 0.33073,-0.1249 0.33072,-0.1249 1.7198,0.13447 1.71979,0.13447 0.33073,0.41583 0.33073,0.41582 v 3.78085 3.78085 l -0.6649,0.16688 -0.66489,0.16688 -0.39344,-0.32653 -0.39344,-0.32653 v -3.1426 -3.1426 h -0.26458 -0.26459 v 3.02381 3.02381 l -0.41577,0.41577 -0.41577,0.41577 z m 7.0965,0.0307 h -1.20517 l -0.60204,-0.42168 -0.60204,-0.42169 0.0801,-1.09967 0.0802,-1.09967 0.85082,-0.0822 0.85082,-0.0822 0.17005,0.67755 0.17005,0.67754 h 0.25348 0.25347 l -0.0837,-0.71906 -0.0837,-0.71905 -0.92604,-0.59928 -0.92604,-0.59928 -0.33073,-0.27959 -0.33073,-0.2796 v -1.39421 -1.39421 l 0.3739,-0.51134 0.3739,-0.51134 1.59869,0.0217 1.5987,0.0217 0.42175,0.35003 0.42176,0.35002 -0.0793,1.08121 -0.0792,1.08121 h -0.79375 -0.79375 l -0.26118,-0.59531 -0.26118,-0.59531 h -0.20184 -0.20184 v 0.67376 0.67377 l 0.83518,0.45071 0.83519,0.45072 0.48773,0.46302 0.48773,0.46302 v 1.5725 1.57249 l -0.58804,0.41188 -0.58804,0.41188 z m -55.1167,-0.27263 -1.107255,-0.008 -0.442344,-0.25811 -0.442345,-0.25812 -0.172684,-0.78622 -0.172685,-0.78623 0.174623,-0.55019 0.174623,-0.55019 0.837281,0.0812 0.837281,0.0812 0.08455,0.59531 0.08455,0.59531 h 0.230566 0.230567 l 0.164985,-0.26695 0.164984,-0.26695 -0.15225,-0.4797 -0.15225,-0.47969 -1.055097,-0.593 -1.055098,-0.593 -0.294982,-0.55118 -0.294982,-0.55118 0.132908,-1.17915 0.132908,-1.17915 0.391013,-0.39102 0.391014,-0.39101 1.48763,-0.0134 1.487631,-0.0134 0.382734,0.31764 0.382734,0.31764 0.172702,0.78631 0.172701,0.7863 -0.320383,0.38604 -0.320383,0.38604 h -0.63561 -0.63561 l -0.267867,-0.70454 -0.267867,-0.70455 -0.281034,0.28104 -0.281034,0.28103 0.155417,0.48968 0.155416,0.48967 1.185915,0.71632 1.185914,0.71632 0.169694,0.67611 0.169694,0.67611 -0.180059,1.20072 -0.180059,1.20072 -0.660449,0.2511 -0.660449,0.2511 z m 4.645614,-0.0412 -0.861715,0.083 -0.137858,-0.35925 -0.137858,-0.35925 0.07353,-3.95713 0.07353,-3.95713 0.99882,-0.0825 0.99882,-0.0825 -0.07278,4.31585 -0.07278,4.31585 z m 3.043023,8.2e-4 -0.729109,0.0839 -0.155537,-0.40532 -0.155538,-0.40533 0.465983,-1.97659 0.465982,-1.97659 -0.407808,-1.85846 -0.407807,-1.85847 0.142964,-0.14296 0.142964,-0.14297 h 0.756202 0.756201 l 0.279235,0.72761 0.279234,0.7276 0.384125,-0.7276 0.384126,-0.72761 h 0.769685 0.769685 l 0.126246,0.20427 0.126246,0.20428 -0.428779,1.79206 -0.428779,1.79206 0.448461,2.13318 0.448462,2.13317 -0.145929,0.23612 -0.145928,0.23611 H 75.985437 75.2175 l -0.292171,-1.08504 -0.292171,-1.08504 -0.171828,0.17183 -0.171828,0.17183 -0.273803,0.84706 -0.273804,0.84707 z m 6.979213,0.0484 h -1.025936 l -0.363126,-0.43705 -0.363126,-0.43706 -0.132292,-3.20096 -0.132291,-3.20097 -0.19009,-0.29196 -0.19009,-0.29195 0.292877,-0.89867 0.292878,-0.89867 0.230178,-0.61267 0.230178,-0.61267 0.715957,0.0835 0.715957,0.0835 0.186505,0.91893 0.186504,0.91892 0.285927,0.0953 0.285927,0.0953 v 0.60702 0.60701 l -0.396875,0.32938 -0.396875,0.32937 v 2.44875 2.44875 l 0.396875,0.32938 0.396875,0.32937 v 0.62906 0.62907 z m 4.191374,0 h -1.495923 l -0.437882,-0.48386 -0.437882,-0.48385 v -3.44389 -3.44389 l 0.483854,-0.43788 0.483855,-0.43788 h 1.579895 1.579896 l 0.3175,0.3175 0.3175,0.3175 v 1.90315 1.90315 l -0.418515,0.1606 -0.418514,0.1606 h -0.904402 -0.904402 v 1.01423 1.01424 l 0.180794,0.18079 0.180795,0.1808 0.343199,-0.81623 0.343199,-0.81623 0.732777,0.0842 0.732777,0.0842 0.08412,1.18103 0.08412,1.18103 -0.465421,0.34032 -0.465421,0.34033 z m -0.01874,-5.82083 h 0.236276 l 0.121624,-0.33073 0.121624,-0.33073 -0.115919,-0.33238 -0.115915,-0.33238 -0.241985,0.14956 -0.241985,0.14955 v 0.51355 0.51355 z m 5.849141,5.82083 h -1.549707 l -0.415774,-0.41578 -0.415774,-0.41577 v -3.53408 -3.53408 l 0.415774,-0.41577 0.415774,-0.41577 h 1.527594 1.527594 l 0.450681,0.49799 0.450682,0.498 -0.07895,1.81711 -0.07895,1.81711 -1.186279,0.0844 -1.186278,0.0844 -0.198733,0.31249 -0.198732,0.3125 -0.0041,0.71199 -0.0041,0.71199 0.265078,0.16382 0.265079,0.16383 0.247768,-0.65168 0.247767,-0.65167 0.295942,-0.18291 0.295941,-0.1829 0.646421,0.16224 0.64642,0.16225 v 1.03439 1.03439 l -0.415774,0.41578 -0.415773,0.41577 z m 0.01562,-5.82083 h 0.248959 v -0.52917 -0.52917 h -0.248969 -0.248968 l -0.163522,0.26458 -0.163521,0.26459 0.163521,0.26458 0.163522,0.26458 z m 4.315149,5.82083 h -0.904289 l 0.0727,-4.29948 0.0727,-4.29948 1.901719,-0.0391 1.901719,-0.0391 0.420876,0.46507 0.420876,0.46506 -0.07364,3.80735 -0.07364,3.80734 h -0.926042 -0.926041 l -0.07405,-3.37343 -0.07405,-3.37344 h -0.256678 -0.256679 v 3.02107 3.02107 l -0.160599,0.41851 -0.160599,0.41852 z m -24.339178,-9.5769 -0.826122,0.0804 -0.150338,-0.39177 -0.150338,-0.39178 0.366584,-0.30424 0.366585,-0.30424 0.609876,0.0865 0.609876,0.0865 v 0.52917 0.52917 z"
       id="path5858" /></g></svg>
