<?xml version="1.0" encoding="UTF-8" standalone="no"?>
<svg
   viewBox="0 0 377.94666 79.826668"
   height="79.826668"
   width="377.94666"
   xml:space="preserve"
   id="svg2"
   version="1.1"
   xmlns="http://www.w3.org/2000/svg"
   xmlns:svg="http://www.w3.org/2000/svg"
   xmlns:rdf="http://www.w3.org/1999/02/22-rdf-syntax-ns#"
   xmlns:cc="http://creativecommons.org/ns#"
   xmlns:dc="http://purl.org/dc/elements/1.1/"><metadata
     id="metadata8"><rdf:RDF><cc:Work
         rdf:about=""><dc:format>image/svg+xml</dc:format><dc:type
           rdf:resource="http://purl.org/dc/dcmitype/StillImage" /></cc:Work></rdf:RDF></metadata><defs
     id="defs6" /><g
     transform="matrix(1.3333333,0,0,-1.3333333,0,79.826667)"
     id="g10"><g
       transform="scale(0.1)"
       id="g12"><path
         id="path14"
         style="fill:#ed2023;fill-opacity:1;fill-rule:nonzero;stroke:none"
         d="m 2761.24,466.32 c -2.43,0 -4.87,-0.402 -6.48,-0.402 v -15.41 h 5.67 c 7.31,0 12.17,2.844 12.17,7.707 0,5.273 -4.46,8.105 -11.36,8.105" /><path
         id="path16"
         style="fill:#ed2023;fill-opacity:1;fill-rule:nonzero;stroke:none"
         d="m 2775.84,413.594 c -2.03,2.441 -3.24,8.117 -4.46,13.801 -1.21,6.484 -4.46,9.722 -10.95,9.722 h -6.48 v -23.523 h -19.88 v 64.48 c 4.47,0.813 15.01,2.035 28.39,2.035 14.59,0 21.09,-2.035 25.96,-4.875 4.04,-2.832 6.88,-7.703 6.88,-14.179 0,-6.492 -6.08,-12.168 -15,-14.61 v -0.8 c 7.3,-2.442 11.35,-7.305 13.38,-16.641 2.03,-9.316 3.25,-12.969 4.47,-15.41 z m -12.98,103.008 c -40.14,0 -72.17,-31.219 -72.17,-69.747 0,-38.933 32.03,-70.156 72.17,-70.156 40.15,0 71.79,31.223 71.79,70.156 0,38.528 -31.64,69.747 -71.79,69.747" /><path
         id="path18"
         style="fill:#ed2023;fill-opacity:1;fill-rule:nonzero;stroke:none"
         d="M 21.5625,116.824 C 50.0703,102.219 93.8789,87.6172 139.086,87.6172 c 48.668,0 74.402,20.1678 74.402,50.7738 0,29.199 -22.246,45.886 -78.574,66.054 C 57.0313,231.574 6.26172,274.68 6.26172,342.824 c 0,79.981 66.76558,141.18 177.32428,141.18 52.859,0 91.805,-11.133 119.617,-23.652 l -23.64,-85.528 c -18.782,9.035 -52.168,22.246 -98.059,22.246 -45.899,0 -68.152,-20.871 -68.152,-45.203 0,-29.902 26.425,-43.117 86.933,-66.054 82.742,-30.61 121.688,-73.711 121.688,-139.786 C 321.973,67.4492 261.465,0.683594 132.836,0.683594 79.2773,0.683594 26.4258,14.6016 0,29.2109 l 21.5625,87.6131" /><path
         id="path20"
         style="fill:#ed2023;fill-opacity:1;fill-rule:nonzero;stroke:none"
         d="M 477.043,387.336 H 351.184 v 89.012 H 711.398 V 387.336 H 583.449 V 7.64844 H 477.043 V 387.336" /><path
         id="path22"
         style="fill:#ed2023;fill-opacity:1;fill-rule:nonzero;stroke:none"
         d="m 969.387,550.754 c 0,27.129 20.164,47.976 47.293,47.976 27.11,0 46.58,-20.847 46.58,-47.976 0,-25.734 -19.47,-47.285 -46.58,-47.285 -27.813,0 -47.293,21.551 -47.293,47.285 z M 830.996,240.605 c 0,-91.796 43.125,-156.4644 114.043,-156.4644 71.641,0 112.671,68.1564 112.671,159.2384 0,84.152 -40.34,156.476 -113.355,156.476 -71.628,0 -113.359,-68.156 -113.359,-159.25 z m -6.25,310.149 c 0,27.129 20.852,47.976 47.981,47.976 25.734,0 45.898,-20.847 45.898,-47.976 0,-25.734 -19.473,-47.285 -45.898,-47.285 -27.129,0 -47.981,21.551 -47.981,47.285 z M 1169.67,246.867 C 1169.67,93.1836 1076.49,0 939.492,0 800.41,0 719.047,105 719.047,238.516 c 0,140.476 89.707,245.488 228.094,245.488 143.949,0 222.529,-107.805 222.529,-237.137" /><path
         id="path24"
         style="fill:#ed2023;fill-opacity:1;fill-rule:nonzero;stroke:none"
         d="m 1337.23,82.7539 c 10.44,-1.3945 22.96,-1.3945 41.03,-1.3945 47.98,0 90.41,18.0742 90.41,67.4496 0,47.296 -42.43,66.062 -95.27,66.062 h -36.17 z m 0,207.9221 H 1372 c 55.64,0 85.54,22.945 85.54,57.715 0,35.468 -27.11,54.246 -75.11,54.246 -22.94,0 -36.15,-1.395 -45.2,-2.782 z m -104.99,179.402 c 27.81,5.567 84.14,9.758 136.99,9.758 64.67,0 104.31,-6.27 138.38,-26.438 32.68,-17.39 56.34,-49.375 56.34,-91.796 0,-41.719 -24.34,-80.664 -77.2,-100.125 v -1.399 c 53.54,-14.598 93.18,-54.941 93.18,-115.437 0,-42.422 -19.47,-75.7933 -48.68,-99.4457 -34.07,-27.1211 -91.09,-42.42186 -184.27,-42.42186 -52.16,0 -91.1,3.47656 -114.74,6.96484 V 470.078" /><path
         id="path26"
         style="fill:#ed2023;fill-opacity:1;fill-rule:nonzero;stroke:none"
         d="M 1751.69,476.348 V 7.64844 H 1645.3 V 476.348 h 106.39" /><path
         id="path28"
         style="fill:#ed2023;fill-opacity:1;fill-rule:nonzero;stroke:none"
         d="m 2180.74,20.8516 c -19.47,-9.7383 -63.28,-20.168006 -120.31,-20.168006 -162.02,0 -245.47,100.839406 -245.47,234.355406 0,159.953 114.05,248.965 255.9,248.965 54.94,0 96.67,-11.133 115.45,-20.867 l -21.56,-84.145 c -21.56,9.035 -51.46,17.375 -89.02,17.375 -84.14,0 -149.5,-50.75 -149.5,-155.066 0,-93.879 55.63,-152.9885 150.2,-152.9885 31.99,0 67.46,6.9531 88.32,15.3005 l 15.99,-82.7614" /><path
         id="path30"
         style="fill:#ed2023;fill-opacity:1;fill-rule:nonzero;stroke:none"
         d="M 2349.72,476.348 V 296.242 h 174.55 v 180.106 h 105.7 V 7.64844 h -105.7 V 203.742 H 2349.72 V 7.64844 h -106.4 V 476.348 h 106.4" /></g></g></svg>
