<?xml version="1.0" encoding="UTF-8" standalone="no"?>
<svg
   width="217.2793"
   height="248.88452"
   viewBox="0 0 217.2793 248.88452"
   version="1.1"
   id="svg6"
   xmlns:xlink="http://www.w3.org/1999/xlink"
   xmlns="http://www.w3.org/2000/svg"
   xmlns:svg="http://www.w3.org/2000/svg">
  <!-- Generator: Sketch 55 (78076) - https://sketchapp.com -->
  <title
     id="title1">Group 21</title>
  <desc
     id="desc1">Created with Sketch.</desc>
  <defs
     id="defs1">
    <polygon
       id="path-1"
       points="285.54,131.25812 7.3995,131.25812 7.3995,2.8515238 285.54,2.8515238 " />
    <polygon
       id="path-3"
       points="51.933,52.666667 0,52.666667 0,5.8384762 51.933,5.8384762 " />
    <polygon
       id="path-5"
       points="165.7035,116.57315 0,116.57315 0,0.24753333 165.7035,0.24753333 " />
    <polygon
       id="path-7"
       points="165.7035,86.477914 0,86.477914 0,6.1988667 165.7035,6.1988667 " />
    <polygon
       id="path-9"
       points="144.501,97.605629 0,97.605629 0,0.24753333 144.501,0.24753333 " />
    <polygon
       id="path-11"
       points="102.8835,67.51039 0,67.51039 0,6.1988667 102.8835,6.1988667 " />
  </defs>
  <g
     id="Page-1"
     stroke="none"
     stroke-width="1"
     fill="none"
     fill-rule="evenodd"
     transform="translate(20.281709,-12.9712)">
    <g
       id="tsb-logo"
       transform="translate(-253,-429)">
      <g
         id="Group-21"
         transform="translate(253,422)">
        <g
           id="Group-3"
           transform="translate(202.5,4.676048)">
          <mask
             id="mask-2"
             fill="#ffffff">
            <use
               xlink:href="#path-1"
               id="use1" />
          </mask>
          <path
             d="m 238.212,25.322886 c -0.765,0.21819 -1.6275,0.285905 -2.565,0.285905 -4.1325,0 -5.565,-1.760572 -5.565,-8.795334 0,-6.9369522 1.47,-8.8103808 6.2925,-8.8103808 2.01,0 4.2,0.4363809 5.895,1.1210476 l 0.5625,-5.0409524 c -1.86,-0.7599047 -4.4475,-1.2339047 -6.78,-1.2339047 -8.31,0 -11.9025,4.3638095 -11.9025,14.0319043 0,9.449905 3.2025,13.994286 11.655,13.994286 2.73,0 5.64,-0.609428 7.47,-1.48219 V 15.722505 h -5.0625 z m -21.75,-8.479334 c 0,10.20981 -3.1575,13.994286 -10.8225,13.994286 -7.515,0 -10.8225,-4.002667 -10.8225,-13.994286 0,-9.9916187 3.1725,-13.9566663 10.8225,-13.9566663 7.665,0 10.8225,3.9650476 10.8225,13.9566663 z m -5.925,0 c 0,-7.1777139 -1.23,-8.6975234 -4.8975,-8.6975234 -3.63,0 -4.89,1.5574285 -4.89,8.6975234 0,7.177715 1.26,8.772762 4.92,8.772762 3.6375,0 4.8675,-1.632666 4.8675,-8.772762 z M 69.732,30.837838 c 2.13,0 4.47,-0.541714 6.0525,-1.331714 l -0.57,-4.800191 c -1.335,0.616953 -2.88,1.015715 -4.6425,1.015715 -4.425,0 -5.97,-1.986286 -5.97,-9.058667 0,-6.636 1.47,-8.5545715 5.865,-8.5545715 1.755,0 3.4425,0.3686667 4.665,0.8351429 l 0.585,-5.018381 c -1.38,-0.6019047 -3.7425,-1.0759047 -5.6475,-1.0759047 -7.8825,0 -11.3925,4.5368571 -11.3925,13.8137143 0,9.85619 3.5475,14.174857 11.055,14.174857 z m 183.135,-0.474 h 5.7825 V 3.3232667 h -2.8875 -2.895 z m -99.45,0.474 c -7.515,0 -10.8075,-4.002667 -10.8075,-13.994286 0,-9.9916187 3.165,-13.9566663 10.8075,-13.9566663 7.665,0 10.83,3.9650476 10.83,13.9566663 0,10.20981 -3.165,13.994286 -10.83,13.994286 z m 4.905,-13.994286 c 0,-7.1777139 -1.2225,-8.6975234 -4.905,-8.6975234 -3.6225,0 -4.8825,1.5574285 -4.8825,8.6975234 0,7.177715 1.26,8.765239 4.92,8.765239 3.645,0 4.8675,-1.625143 4.8675,-8.765239 z M 50.997,25.247648 H 39.882 v -6.41781 h 8.88 v -4.755047 h -8.88 V 8.5071714 H 50.457 L 50.3445,3.3232667 H 34.2495 V 30.363838 h 16.605 z m 38.895,-6.094286 h 8.3475 v 11.210476 h 5.64 V 3.3232667 h -5.64 V 13.886695 H 89.892 V 3.3232667 h -5.64 V 30.363838 h 5.64 z m 99.0375,5.951333 h -9.93 V 3.3157429 H 173.337 V 30.363838 h 15.4425 z m 85.5075,0.142953 v -6.41781 h 8.88 v -4.755047 h -8.88 V 8.5071714 h 10.56 l -0.105,-5.1839047 h -16.11 V 30.363838 h 16.62 l 0.1425,-5.11619 z m -260.4825,5.11619 h 5.7 V 8.6200286 h 6.54 l -0.09,-5.2967619 h -18.57 l -0.135,5.2967619 h 6.555 z m 119.8125,0 V 3.3232667 h -4.95 V 16.805933 l 0.0675,2.881619 -0.0675,0.03762 -9.9975,-16.4019043 H 113.967 V 30.363838 h 4.9875 V 16.158886 l -0.03,-2.919238 0.0675,-0.03762 1.5075,2.520476 9.2475,14.641333 z m -17.4825,24.151429 h -18.54 l -0.15,5.296762 h 6.5475 v 21.751333 h 5.715 V 59.812029 h 6.5475 z M 143.427,72.37679 V 54.515267 h -5.64 v 17.786285 c 0,3.137429 -1.23,4.431524 -4.245,4.431524 -3.0225,0 -4.2825,-1.331714 -4.2825,-4.431524 V 54.515267 h -5.67 V 72.37679 c 0,6.485524 3.405,9.653048 9.9525,9.653048 6.5475,0 9.885,-3.167524 9.885,-9.653048 z M 89.907,65.846124 H 81.102 V 59.812029 H 91.6395 L 91.557,54.515267 H 75.462 v 27.048095 h 5.64 V 70.856981 h 8.7375 z m 78.045,2.159333 0.075,2.881619 -0.075,0.03762 -9.9975,-16.409428 h -4.86 v 27.048095 h 4.995 V 67.358409 l -0.0375,-2.926761 0.075,-0.0301 1.515,2.520477 9.2475,14.641333 h 4.02 V 54.515267 h -4.9575 z m -150.69,8.94581 c -2.415,0 -4.605,-0.684667 -6.6975,-1.798191 l -0.75,4.973238 c 2.085,1.226381 4.7475,1.903524 7.5525,1.903524 5.8275,0 9.195,-3.167524 9.195,-8.471809 0,-8.870572 -11.2125,-7.283048 -11.2125,-11.609239 0,-1.519809 0.8625,-2.670952 3.9225,-2.670952 1.8375,0 3.78,0.353619 5.79,1.038286 l 0.645,-4.890476 c -1.8675,-0.872762 -4.3425,-1.339238 -6.795,-1.339238 -6.225,0 -8.9925,3.528666 -8.9925,8.110666 0,8.840476 11.2275,7.290572 11.2275,11.729619 0,1.978762 -1.2,3.024572 -3.885,3.024572 z m 21.99,4.612095 h 5.7075 V 59.812029 H 51.507 L 51.4095,54.515267 H 32.847 l -0.135,5.296762 h 6.54 z M 65.1645,54.515267 H 62.277 59.3745 v 27.048095 h 5.79 z M 196.002,76.522409 c -0.7575,0.218191 -1.62,0.285905 -2.5575,0.285905 -4.14,0 -5.5725,-1.768095 -5.5725,-8.802857 0,-6.929428 1.47,-8.802857 6.3,-8.802857 2.01,0 4.2,0.428857 5.8875,1.113524 l 0.57,-5.040953 c -1.8675,-0.759904 -4.4475,-1.22638 -6.7875,-1.22638 -8.3025,0 -11.895,4.363809 -11.895,14.031904 0,9.449905 3.1875,13.986762 11.6475,13.986762 2.7375,0 5.64,-0.616952 7.47,-1.474666 V 66.922029 h -5.0625 z m -50.76,27.687621 v 17.62828 l 0.0675,2.88915 -0.0675,0.0376 -1.4775,-2.52048 -10.6875,-18.03457 h -3.1125 v 27.04809 h 3.0525 v -18.1775 l -0.0375,-2.91924 0.075,-0.0376 1.44,2.528 11.25,18.60638 h 2.475 v -27.04809 z m -30.7125,27.04809 h 3.48 v -27.04809 h -1.7475 -1.7325 z m -90.915,-14.31781 c 2.8425,0.71477 4.5225,2.77629 4.5225,6.636 0,4.86791 -2.2875,7.68181 -8.0475,7.68181 H 10.947 v -27.04809 h 8.82 c 4.92,0 7.4025,2.19695 7.4025,6.71124 0,3.31047 -1.4325,5.1839 -3.555,5.94381 z m -9.3525,-1.08342 h 5.5425 c 2.805,0 4.065,-1.36934 4.065,-4.33372 0,-3.13743 -1.29,-4.22086 -4.215,-4.22086 H 14.262 Z m 5.8725,12.37666 c 2.94,0 4.59,-1.2339 4.59,-4.91305 0,-3.31799 -1.5,-4.68733 -4.755,-4.68733 H 14.262 v 9.60038 z m 55.08,-9.20914 6.435,12.23371 H 77.622 l -5.5425,-11.58666 h -4.71 v 11.58666 H 63.957 v -27.04809 h 8.0925 c 5.4225,0 7.9725,2.3399 7.9725,7.64419 0,4.25095 -1.6875,6.59838 -4.8075,7.17019 z m 1.29,-7.03476 c 0,-3.53619 -1.365,-4.71743 -4.425,-4.71743 h -4.71 v 9.59286 h 4.575 c 3.1575,0 4.56,-1.22638 4.56,-4.87543 z m -37.95,-7.77962 v 27.04809 H 53.982 l 0.0975,-3.20514 h -12.105 v -9.38971 h 9.87 v -2.98696 h -9.87 v -8.22352 h 11.535 l -0.075,-3.24276 z m 55.6575,0 v 23.76771 h 11.1375 l -0.105,3.28038 h -14.475 v -27.04809 z"
             id="Fill-1"
             fill="#000000"
             mask="url(#mask-2)"
             transform="matrix(0.78118541,0,0,0.78118541,-228.56209,161.64274)" />
        </g>
        <g
           id="Group-6"
           transform="translate(0,102.48557)">
          <mask
             id="mask-4"
             fill="#ffffff">
            <use
               xlink:href="#path-3"
               id="use2" />
          </mask>
          <g
             id="Clip-5" />
          <polygon
             id="Fill-4"
             fill="#e40134"
             mask="url(#mask-4)"
             points="51.528,14.844476 15.438,52.666667 -0.0045,6.282381 0.7305,5.8384762 51.933,14.423143 " />
        </g>
        <polygon
           id="Fill-7"
           fill="#71cbf4"
           points="35.748,33.870686 182.673,98.823733 165.708,136.2923 0.003,108.77021 " />
        <g
           id="Group-11"
           transform="translate(0,19.723667)">
          <mask
             id="mask-6"
             fill="#ffffff">
            <use
               xlink:href="#path-5"
               id="use3" />
          </mask>
          <g
             id="Clip-10" />
          <polygon
             id="Fill-9"
             fill="#63b9e9"
             mask="url(#mask-6)"
             points="144.501,0.24753333 165.7035,116.57315 -0.0015,89.043533 " />
        </g>
        <g
           id="Group-14"
           transform="translate(0,49.818905)">
          <mask
             id="mask-8"
             fill="#ffffff">
            <use
               xlink:href="#path-7"
               id="use4" />
          </mask>
          <g
             id="Clip-13" />
          <polygon
             id="Fill-12"
             fill="#3192d0"
             mask="url(#mask-8)"
             points="-0.0015,58.948295 85.8435,6.1988667 156.786,37.558105 165.7035,86.477914 " />
        </g>
        <g
           id="Group-17"
           transform="translate(0,19.723667)">
          <mask
             id="mask-10"
             fill="#ffffff">
            <use
               xlink:href="#path-9"
               id="use5" />
          </mask>
          <g
             id="Clip-16" />
          <polygon
             id="Fill-15"
             fill="#3a5ba7"
             mask="url(#mask-10)"
             points="144.501,0.24753333 51.531,97.605629 -0.0015,89.043533 " />
        </g>
        <g
           id="Group-20"
           transform="translate(0,49.818905)">
          <mask
             id="mask-12"
             fill="#ffffff">
            <use
               xlink:href="#path-11"
               id="use6" />
          </mask>
          <g
             id="Clip-19" />
          <polygon
             id="Fill-18"
             fill="#213a8f"
             mask="url(#mask-12)"
             points="-0.0015,58.948295 85.8435,6.1988667 102.8835,13.7302 51.531,67.51039 " />
        </g>
      </g>
    </g>
  </g>
</svg>
