<svg xmlns="http://www.w3.org/2000/svg" viewBox="0 0 800 800" opacity="inherit">
	<path stroke-width="1.5" fill="none" d="m 0,800 h -3 l 186,5 z M -10,360 -3,800 0,662 Z M 139,800 H 0 l 183,5 z M 0,751 v 49 l 98,-41 z m -3,49 h 3 v -49 z m 803,-12 v 12 l 6,-137 z m -25,12 h 25 v -12 z m -286,8 311,-8 h -25 z m 305,-53 6,33 6,-125 z m -19,45 25,-12 -6,-33 z m -286,8 286,-8 h -63 z m 223,-8 h 63 l 19,-45 z M 0,742 v 9 l 48,-51 z m -3,58 3,-49 v -9 z m 0,0 3,-58 V 662 Z M 108,782 0,800 H 139 Z M 0,662 v 80 l 48,-42 z m 712,138 82,-45 -46,-48 z m 88,-130 -6,85 12,-92 z m -52,37 46,48 -31,-68 z m -133,93 h 97 l -49,-72 z m -126,8 223,-8 H 615 Z M 0,75 V 0 L -10,360 Z M 8,0 H 0 V 75 Z M 813,249 809,0 800,105 Z M 0,751 98,759 48,700 Z M 66,0 H 8 L 43,14 Z M 43,14 8,0 0,75 Z m 108,786 h -12 l 44,5 z m -43,-18 31,18 h 12 z m 0,0 43,18 -53,-41 z M 800,61 V 0 h -73 z m 9,-61 h -9 v 61 z m -711,759 53,41 8,-105 z M 48,700 98,759 118,655 Z M 108,782 98,759 0,800 Z M 0,583 v 79 L 31,603 Z M -10,360 0,662 v -79 z m 259,440 -66,5 107,-5 z m -151,-41 61,-64 -4,-1 z m 702,-89 6,-7 -6,-14 z m 0,-21 6,14 -6,-38 z m -6,106 6,-85 -37,17 z M 0,662 48,619 31,603 Z m 600,138 h 15 l 33,-80 z m -111,8 126,-8 h -15 z m 274,-121 37,-17 v -21 z m -51,113 36,-93 -44,10 z m 88,-175 6,38 -6,-129 z m -37,62 37,-38 V 625 Z M 580,800 h 20 l 15,-110 z m -91,8 111,-8 h -20 z m 259,-101 15,-20 -71,-56 z m 0,0 -56,-76 12,86 z M 66,0 43,14 99,54 Z M 0,87 V 75 L -10,360 Z M 43,14 0,75 38,84 Z m 757,91 V 61 l -56,41 z m 9,-105 -9,61 v 44 z m -320,808 91,-8 -60,-12 z M 129,0 H 66 L 99,54 Z M 0,162 V 87 L -10,360 Z M 38,84 0,87 26,145 Z M 0,75 v 12 l 38,-3 z m 800,459 6,129 3,-328 z m -37,153 37,-62 -108,6 z M 48,700 118,655 48,619 Z m 242,100 -107,5 116,-5 z M 160,695 h -1 l -8,105 z m 503,33 41,-11 -56,3 z m 49,72 -8,-83 -41,11 z M 711,36 727,0 H 592 Z M 800,61 727,0 711,36 Z M -10,360 0,583 V 518 Z M 0,518 v 65 l 30,-20 z m 0,144 48,38 v -81 z m 183,143 306,3 -190,-8 z m 116,-5 190,8 -134,-8 z m 56,0 134,8 -88,-8 z m 165,-12 60,12 -80,-37 z m -32,12 1,8 31,-20 z m -65,0 66,8 -1,-8 z m -22,0 88,8 -66,-8 z m -241,-105 -9,105 32,5 z m 0,0 23,110 53,-86 z m 76,24 -53,86 66,-5 z M 800,122 v -17 l -55,3 z m 13,127 -13,-144 v 17 z M 423,800 h 65 l 12,-37 z m 225,-80 56,-3 -69,-54 z m -33,80 48,-72 -15,-8 z m -316,-68 -50,68 h 41 z m 189,68 32,-12 -20,-25 z M 0,583 31,603 30,563 Z m 401,217 h 22 l -31,-25 z m 99,-37 80,37 35,-110 z m -108,12 31,25 13,-85 z m -62,-49 -31,6 v 68 z M 744,102 800,61 711,36 Z m 69,147 -13,-127 -28,43 z M 43,14 38,84 99,54 Z m -12,589 17,16 29,-63 z m 0,0 46,-47 -47,7 z M 0,208 V 162 L -10,360 Z M 26,145 0,162 59,173 Z M 38,84 26,145 57,106 Z m 654,547 108,-6 -69,-45 z m -77,59 33,30 -18,-47 z m -15,110 48,-80 -33,-30 z M 0,87 v 75 L 26,145 Z M 99,54 38,84 57,106 Z M 182,0 h -53 l 39,28 z M 0,508 v 10 L 15,502 Z M -10,360 0,518 V 508 Z M 15,502 0,518 30,563 Z M -10,360 0,508 V 398 Z m 819,-25 -3,328 7,-414 z m -9,155 v 44 l 9,-199 z m -23,58 23,-14 -22,-37 z m 23,77 v -91 l -23,14 z M 744,102 711,36 687,102 Z M 118,655 98,759 155,694 Z M 15,502 30,563 76,527 Z M 57,106 26,145 58,166 Z M 0,229 v -21 l -2,60 z m 26,-84 33,28 -1,-7 z m 273,655 v -68 l -9,68 z m -181,-145 37,39 -11,-44 z m 212,71 -31,74 h 56 z m 25,74 28,-56 -53,-18 z m 46,0 -9,-25 -37,25 z m -152,0 50,-68 -63,-13 z m -94,-106 5,1 -16,-45 z m 4,1 h 1 l -5,-1 z m 233,80 44,-60 -53,29 z m 31,25 77,-37 -64,-48 z M 129,0 168,44 V 28 Z M 99,54 168,44 129,0 Z M 0,208 59,173 0,162 Z m -2,60 2,-60 -10,152 z m 2,-60 v 21 l 59,-56 z m 144,442 16,45 50,-42 z M 48,619 118,589 77,556 Z m 752,6 -23,-77 -46,32 z M 0,508 15,502 0,398 Z m 48,111 70,36 V 589 Z M 0,398 15,502 69,423 Z m 777,150 -61,23 15,9 z m 23,-14 v -44 l -22,7 z m 0,-117 v 73 l 9,-155 z m -22,80 22,-7 -63,-19 z m 31,-162 4,-86 -13,50 z m -37,-170 28,-43 -55,-14 z m 28,96 13,-12 -60,-34 z m -802,7 -8,92 10,-4 z m 747,-160 -1,-6 h -57 z m 55,-3 -56,-3 1,6 z M 0,397 -10,360 0,398 Z m 0,-38 -10,1 10,37 z m 0,-3 -10,4 10,-1 z M 0,229 120,261 59,173 Z m 772,-64 -27,-57 -71,16 z M 99,54 191,78 168,44 Z M 232,0 h -50 l 62,37 z m 24,711 -20,8 63,13 z m -96,-16 76,24 -26,-66 z M 0,397 v 1 l 69,25 z m 0,-38 v 38 l 69,26 z M 687,102 711,36 641,79 Z m 126,147 -41,-84 -19,50 z M 0,356 v 3 l 95,-19 z m 69,67 -54,79 73,-34 z M -2,268 120,261 0,229 Z m 650,452 -13,-57 -5,10 z m 152,-303 9,-82 -9,61 z m 0,-21 9,-61 -9,3 z m 0,-58 9,-3 -9,-22 z m 0,-39 13,-50 -13,12 z m 0,14 9,22 -9,-36 z m -47,-98 19,-50 -98,-41 z m 47,84 v -38 l -42,30 z M 500,763 477,663 436,715 Z m 204,-46 -12,-86 -57,32 z m -87,-40 -2,13 15,-17 z m -499,-22 35,-51 -35,-15 z m 659,-107 1,-51 -61,9 z m -521,163 43,21 -20,-28 z m 460,-140 61,-23 -60,-42 z m -24,60 -59,-26 2,58 z M 800,490 v -73 l -63,54 z m -408,285 -9,-31 -28,56 z m 108,-12 20,-126 -43,26 z m -170,-37 53,18 13,-32 z M 99,54 l -42,52 70,43 z m 83,-54 -14,28 76,9 z m 618,417 -90,31 27,23 z m 0,-104 v -14 l -42,-8 z m -108,318 24,-60 -80,29 z m -75,46 13,-4 -16,-5 z M 800,338 v -25 l -44,46 z m -656,312 9,-46 -35,51 z m 135,54 20,28 21,-45 z m -43,15 20,-8 -46,-58 z m 466,-306 8,35 90,-31 z m 56,-122 42,-30 -47,-46 z m -2,68 44,-46 -42,-22 z m 44,37 v -58 l -44,21 z M 711,36 592,0 627,64 Z m -713,232 97,72 25,-79 z m 59,-162 1,60 69,-17 z M 615,690 520,637 500,763 Z M 30,563 77,556 76,527 Z m 46,-36 1,29 87,-29 z m 554,146 5,-10 -21,5 z m -16,-5 21,-5 -33,-44 z m -487,-519 -68,24 61,88 z m -69,17 1,7 68,-24 z M 248,5 232,0 244,37 Z m 59,-5 h -75 l 16,5 z m -8,732 31,-6 -10,-39 z M 168,28 v 16 l 76,-7 z m 390,598 -38,11 95,53 z m 159,-120 61,-9 -41,-26 z m 14,74 -15,-9 -24,60 z m -39,51 -56,-31 -3,5 z m -296,81 -13,32 53,-29 z m -140,-1 23,-7 -1,-40 z m 0,0 22,-47 -68,-11 z m -103,-107 -9,46 66,3 z m -76,-48 41,33 46,-62 z m 11,-88 -12,59 28,-31 z m -73,34 61,25 12,-59 z M 191,78 99,54 l 28,95 z m 53,-41 -76,7 23,34 z m 63,-37 -59,5 -4,32 z m 438,108 -58,-6 -13,22 z M 627,64 592,0 590,51 Z m 14,15 70,-43 -84,28 z M 592,0 h -50 l 48,51 z m 82,124 13,-22 -46,-23 z m 84,167 -5,-76 -27,20 z m -156,328 33,44 -2,-58 z m -206,93 40,3 11,-42 z m -66,14 66,-14 -76,-25 z m 287,-49 -3,-9 1,22 z m -170,-4 -11,42 41,-52 z m -127,14 76,25 -10,-76 z m -167,-83 57,49 -22,-59 z M 76,527 h 88 l -60,-31 z m 202,137 1,40 41,-17 z m -90,-70 22,59 26,-46 z m -70,-5 54,-45 -8,-17 z M 352,0 h -45 l 47,53 z M 590,51 542,0 584,69 Z M 641,79 627,64 584,81 Z M 542,0 523,101 584,69 Z m 184,235 27,-20 -95,-6 z m 30,124 2,-68 -57,21 z M 674,124 641,79 591,145 Z m 43,382 20,-35 -24,5 z M 278,664 320,687 307,572 Z M 436,0 h -84 l 56,26 z m 301,471 -27,-23 3,28 z M 352,0 l 2,53 54,-27 z m 144,0 h -43 l 12,14 z m 260,359 -54,54 98,4 z m -40,212 -69,-28 -11,57 z m 37,-356 -79,-91 -16,85 z M 453,0 h -15 l 27,14 z m 89,0 -73,55 54,46 z m 132,124 -63,71 47,14 z M 438,0 425,35 465,14 Z M 307,0 254,79 354,53 Z m 131,0 h -2 L 425,35 Z M 95,340 69,423 119,392 Z M 0,359 69,423 95,340 Z M 254,79 191,78 219,150 Z M 244,37 254,79 307,0 Z m 472,534 1,-65 -38,10 z m -114,48 31,-14 3,-5 z m -392,34 68,11 -42,-57 z M -2,268 0,356 95,340 Z m 193,-190 -64,71 92,1 z m 411,541 34,-19 -82,-30 z M 69,423 l 19,45 20,-57 z m 645,-159 12,-29 -39,11 z m 42,95 44,58 v -21 z m -668,109 16,28 54,-73 z m 0,0 70,-45 -50,-12 z M 496,0 l -31,14 4,41 z m 118,668 -12,-49 -44,7 z m 65,-152 38,-10 -4,-30 z m -121,110 44,-7 -54,-6 z m 198,-267 -77,18 23,36 z m -77,157 34,-40 -70,-27 z m -526,88 19,-60 -54,45 z m 83,3 42,57 11,-87 z m -64,-63 16,50 55,-15 z m 247,108 28,21 30,-10 z m -23,60 23,-60 -33,-16 z M 584,81 V 69 l -61,32 z m 0,-12 v 12 l 43,-17 z m -165,583 58,11 -34,-75 z m 196,38 -1,-22 -56,-42 z m 32,-147 32,-27 -28,1 z m 69,28 -37,-55 -32,27 z M 244,37 l -53,41 63,1 z m 181,-2 -17,-9 -22,41 z m 11,-35 -28,26 17,9 z m 29,14 -40,21 33,9 z m 293,277 -32,-56 -12,29 z m -79,225 -36,-67 8,68 z M 584,69 627,64 590,51 Z m 57,10 -57,2 7,64 z m -88,35 31,-33 -61,20 z m 38,31 -7,-64 -31,33 z m 167,146 -44,-27 -13,48 z m -71,-45 39,-11 -68,-26 z m 11,27 16,-9 -27,-18 z m 3,39 13,-48 -16,9 z m -181,325 38,-11 -10,-13 z m 28,-24 54,6 -49,-41 z m -71,50 43,-26 -19,-34 z M 458,44 425,35 387,84 Z m -338,217 -25,79 25,-2 z m 123,318 -7,28 31,-32 z m -55,15 48,13 7,-28 z m 525,-118 -3,-28 -67,1 z m -111,143 -48,-49 -1,8 z m -383,-469 -92,-1 83,44 z m 135,-97 -100,26 99,44 z m -190,474 8,17 14,-33 z m 24,67 -16,-50 -19,60 z M 469,55 458,44 387,84 Z m -4,-41 -7,30 11,11 z m -79,622 33,16 24,-64 z m 61,37 -28,-21 -23,60 z m -328,-281 -11,19 35,-18 z m -24,-52 24,52 1,-54 z m 596,72 11,1 -23,-36 z m 19,36 -19,-36 -48,37 z m -524,63 -14,33 64,-18 z m -82,-15 89,-11 -35,-62 z m 416,141 28,-24 -47,-10 z m 116,-37 11,-57 -93,27 z m -135,3 47,10 5,-35 z m 200,-291 -3,-39 -76,7 z m -574,-163 76,69 7,-25 z m -58,274 39,-12 11,-19 z m 84,-169 -33,7 39,1 z m 494,289 -91,-38 -2,65 z M 386,67 354,53 387,84 Z m 22,-41 -54,27 32,14 z m 115,75 -54,-46 -3,92 z M 496,0 469,55 542,0 Z m 202,273 -69,-19 -7,26 z m 58,86 -55,-47 -22,65 z m -77,18 22,-65 -75,61 z m -36,72 48,-37 -64,-6 z m 59,-36 -11,-1 19,36 z m -582,-75 -1,54 24,1 z m 158,326 29,-92 -18,5 z m -135,-271 -35,18 50,12 z m -23,-132 56,48 -17,-47 z m 567,-15 -29,-37 -29,45 z m -76,-51 63,-71 -83,21 z m -344,380 -31,32 53,-30 z m -95,-31 77,10 -13,-28 z M 387,84 354,53 l -1,70 z m 38,-49 -39,32 1,17 z m -261,492 29,-42 -89,11 z m 85,27 -6,25 24,-4 z m -56,-69 -7,26 50,15 z m -29,42 22,-16 7,-26 z m 427,-382 -38,-31 -39,35 z m 38,109 29,-45 -47,-14 z m 62,158 -12,-35 -52,29 z m -44,131 4,-26 -95,-12 z m -146,60 52,-25 1,-8 z m -115,33 -79,-64 13,115 z m 91,27 24,-60 -58,-15 z m -34,-75 58,15 4,-82 z m 168,-393 -20,-50 -48,67 z m -58,-81 -30,-13 -9,48 z m -426,35 -7,112 33,-7 z m 126,3 -34,-2 12,31 z m 1,-73 -35,71 34,2 z M 120,261 v 77 l 56,-29 z m 7,-112 26,105 50,-36 z m 122,405 18,21 35,-36 z m 252,49 53,-33 -49,-49 z m -346,-205 -12,-5 15,30 z m -35,-60 65,-25 -9,-4 z m 403,-237 -57,46 48,2 z m -170,22 -99,-44 44,74 z m 116,-68 -82,29 79,63 z m -299,203 -11,4 30,4 z m -17,-4 19,3 31,-39 z m 90,325 6,-25 -77,-10 z m -88,-181 3,25 56,-17 z m 152,174 79,64 -30,-62 z m -40,3 22,2 13,-38 z m -18,-21 1,-52 -14,24 z m 402,-37 -8,-68 -87,56 z m -24,-111 52,-29 -53,-4 z m -71,99 87,-56 -86,-34 z m -413,-112 42,-80 -65,25 z m 12,5 30,-85 -42,80 z m 42,74 -4,13 57,17 z m -39,-49 35,62 4,-13 z m 435,-203 18,-25 -68,17 z m 36,34 -18,-59 -18,25 z m -457,3 -2,1 19,8 z m -2,1 2,-1 -19,-3 z m 0,0 -17,-4 6,8 z m 49,-108 -9,43 21,-12 z m -16,68 -31,39 17,9 z m 28,-37 -21,12 23,13 z m -38,304 43,41 14,-24 z m 61,-406 -1,73 45,1 z m 102,495 30,62 57,-48 z m -107,-20 53,-15 -52,-37 z m 107,20 87,14 -47,-63 z m -54,-35 5,33 55,-30 z m -13,38 18,-5 -5,-33 z m -131,-154 39,49 17,-66 z m 95,-271 -22,29 16,12 z m 0,0 -6,41 51,-40 z m 448,160 -79,-32 4,93 z m -79,-32 7,-26 -38,-29 z m 65,-34 -58,8 69,19 z m -456,-65 2,25 14,-13 z m -21,12 -7,25 30,-12 z m -21,73 -30,-4 17,47 z m 44,-60 -30,12 59,73 z m -19,200 -17,66 52,-68 z m -29,-93 -30,85 59,8 z m 4,-47 -13,43 9,4 z m 316,255 49,49 2,-65 z m -143,21 -6,32 40,-49 z m -55,30 49,2 6,-32 z m -104,-354 -14,48 73,25 z m 184,-134 -34,39 26,30 z m 0,0 -8,69 87,-6 z m 256,365 -16,-43 -70,9 z m -17,-76 -4,-93 -21,18 z m -35,-148 2,-5 -50,-8 z m 31,55 -60,-32 39,50 z m -31,-135 -77,4 29,63 z m -402,121 -4,47 77,-22 z m 58,-73 -14,13 53,48 z m 106,-70 -55,30 h 81 z m 26,30 h -81 l 10,49 z m -117,138 -77,22 64,91 z m 46,-89 -61,-9 39,61 z m -10,-49 -51,40 61,9 z m 331,101 -36,-34 -2,5 z m -34,90 31,29 -25,-75 z m 32,62 -74,-20 4,29 z m -430,66 53,30 33,-56 z m 346,-260 -29,-63 -31,32 z m 79,68 -31,-55 -29,23 z m -372,222 79,8 -46,-64 z m 290,-8 16,11 1,-90 z m -35,27 51,-16 -16,-11 z m -22,-340 -17,-34 -29,54 z m 31,-32 -48,-2 17,34 z m -185,361 -27,29 60,3 z m -80,-106 -52,68 86,-26 z m -64,-91 29,93 35,-2 z m 211,212 47,63 -6,-94 z m -67,-15 33,32 -15,-42 z m 174,-3 2,14 35,-27 z m -60,81 62,-67 -68,-27 z m 119,-340 29,-23 -48,-13 z m 33,96 6,-46 -41,-1 z m 32,62 -1,-33 -73,13 z m -124,101 37,-13 -42,-47 z m -37,-360 -87,6 58,48 z m 96,101 -19,-36 7,35 z m 64,125 -31,-29 -42,42 z m -121,148 -2,-14 -66,-13 z m 96,-223 -39,-50 -2,49 z m -51,-51 -7,-35 -57,-1 z m 10,50 2,-49 -23,18 z m -123,-96 -58,-48 -9,58 z m 49,10 -3,-30 -46,20 z m 57,1 -60,-31 3,30 z m -196,288 15,42 34,-17 z m -64,-54 46,64 17,-70 z m 19,93 27,-29 -79,-8 z m 135,-45 66,13 -32,-54 z m -90,6 49,25 -19,-72 z m -61,-246 -53,-48 29,85 z m 84,-43 -62,-9 53,37 z m 9,-58 -71,49 62,9 z m 160,113 11,-19 -64,-36 z m 23,-18 -12,-1 -11,19 z m -300,43 -13,113 54,-74 z m 278,203 17,-79 -59,32 z m 13,-108 42,-42 -35,-47 z m -55,61 59,-32 -4,-29 z m -169,63 18,-10 -1,-60 z m 224,-124 7,-89 -20,-2 z m -197,65 -9,49 30,-47 z m -10,-11 1,60 9,-49 z m -97,-36 104,8 -50,-82 z m 290,-138 -53,-55 -6,82 z m 1,29 -1,-29 -59,27 z m 20,2 -21,-31 1,29 z m -311,107 34,42 70,-34 z m 40,-121 -27,8 40,10 z m -3,-29 -24,37 27,-8 z m 22,-52 -22,52 65,-7 z m 190,245 55,-61 -99,-32 z m -27,6 32,54 -5,-60 z m -94,0 60,41 34,-41 z m 19,72 41,-31 -60,-41 z m 90,-314 -49,-10 43,92 z m -84,20 35,-30 -67,10 z m 78,62 -43,-92 -35,30 z m 5,35 55,-33 -60,-2 z m 68,58 -13,-91 -55,33 z m -192,-147 -53,-37 43,45 z m 41,-8 -32,-20 -9,28 z m 69,222 27,-6 -63,-62 z m -185,-199 3,29 62,-36 z m 16,47 -40,-10 41,39 z m 49,-54 -62,36 13,18 z m 26,206 h 94 l -36,-68 z m 25,-222 -41,8 2,58 z m -56,209 10,11 -3,-39 z m 134,-147 -78,-62 38,74 z m -129,-46 -49,54 61,-4 z m 12,50 -61,4 35,19 z m 39,-66 -39,66 77,8 z m -119,215 63,-6 7,-28 z m 152,-61 63,62 -44,-93 z m -82,27 24,41 58,-68 z m 3,39 21,2 -24,-41 z m -19,-131 -34,10 58,1 z m -35,-19 1,29 34,-10 z m 59,-62 -10,8 12,50 z m 124,89 -5,-35 -40,12 z m -182,2 50,82 8,-81 z m 151,24 31,-26 -45,-23 z m 99,32 -68,-58 -31,26 z m -192,-55 -8,81 82,-27 z m 2,-34 -26,23 24,11 z m 77,8 -77,-8 -2,34 z m 14,49 -14,-49 -79,26 z m -19,31 19,-31 -93,-23 z" />
</svg>
